<svg width="600" height="232" viewBox="0 0 600 232" fill="none" xmlns="http://www.w3.org/2000/svg">
<rect width="600" height="232" rx="19" fill="white"/>
<path d="M224.392 105.341V117H220.57V97.3636H224.239V100.56H224.482C224.933 99.5199 225.641 98.6847 226.604 98.054C227.575 97.4233 228.798 97.108 230.273 97.108C231.611 97.108 232.783 97.3892 233.788 97.9517C234.794 98.5057 235.574 99.3324 236.128 100.432C236.682 101.531 236.959 102.891 236.959 104.51V117H233.136V104.97C233.136 103.547 232.766 102.435 232.024 101.634C231.283 100.824 230.264 100.419 228.969 100.419C228.082 100.419 227.294 100.611 226.604 100.994C225.922 101.378 225.381 101.94 224.98 102.682C224.588 103.415 224.392 104.301 224.392 105.341ZM245.908 105.341V117H242.085V90.8182H245.857V100.56H246.099C246.56 99.5028 247.263 98.6634 248.209 98.0412C249.155 97.419 250.391 97.108 251.916 97.108C253.263 97.108 254.439 97.3849 255.445 97.9389C256.459 98.4929 257.243 99.3196 257.797 100.419C258.359 101.51 258.641 102.874 258.641 104.51V117H254.818V104.97C254.818 103.53 254.447 102.413 253.706 101.621C252.964 100.82 251.933 100.419 250.612 100.419C249.709 100.419 248.899 100.611 248.183 100.994C247.476 101.378 246.918 101.94 246.509 102.682C246.108 103.415 245.908 104.301 245.908 105.341ZM269.456 117.435C268.212 117.435 267.087 117.205 266.081 116.744C265.075 116.276 264.278 115.598 263.69 114.712C263.111 113.825 262.821 112.739 262.821 111.452C262.821 110.344 263.034 109.432 263.46 108.716C263.886 108 264.462 107.433 265.186 107.016C265.911 106.598 266.72 106.283 267.615 106.07C268.51 105.857 269.422 105.695 270.351 105.584C271.527 105.447 272.482 105.337 273.214 105.251C273.947 105.158 274.48 105.009 274.812 104.804C275.145 104.599 275.311 104.267 275.311 103.807V103.717C275.311 102.601 274.996 101.736 274.365 101.122C273.743 100.509 272.814 100.202 271.578 100.202C270.291 100.202 269.277 100.487 268.536 101.058C267.803 101.621 267.295 102.247 267.014 102.938L263.422 102.119C263.848 100.926 264.47 99.9631 265.288 99.2301C266.115 98.4886 267.065 97.9517 268.139 97.6193C269.213 97.2784 270.342 97.108 271.527 97.108C272.311 97.108 273.142 97.2017 274.02 97.3892C274.906 97.5682 275.733 97.9006 276.5 98.3864C277.276 98.8722 277.911 99.5668 278.405 100.47C278.899 101.365 279.146 102.528 279.146 103.96V117H275.413V114.315H275.26C275.013 114.81 274.642 115.295 274.148 115.773C273.653 116.25 273.018 116.646 272.243 116.962C271.467 117.277 270.538 117.435 269.456 117.435ZM270.287 114.366C271.344 114.366 272.247 114.158 272.997 113.74C273.756 113.322 274.331 112.777 274.723 112.104C275.124 111.422 275.324 110.693 275.324 109.918V107.386C275.188 107.523 274.923 107.651 274.531 107.77C274.148 107.881 273.709 107.979 273.214 108.064C272.72 108.141 272.239 108.213 271.77 108.281C271.301 108.341 270.909 108.392 270.594 108.435C269.852 108.528 269.175 108.686 268.561 108.908C267.956 109.129 267.47 109.449 267.104 109.866C266.746 110.276 266.567 110.821 266.567 111.503C266.567 112.449 266.916 113.165 267.615 113.651C268.314 114.128 269.205 114.366 270.287 114.366ZM293.404 97.3636V100.432H282.678V97.3636H293.404ZM285.554 92.6591H289.377V111.234C289.377 111.976 289.488 112.534 289.709 112.909C289.931 113.276 290.216 113.527 290.566 113.663C290.924 113.791 291.311 113.855 291.729 113.855C292.036 113.855 292.304 113.834 292.534 113.791C292.765 113.749 292.944 113.714 293.071 113.689L293.762 116.847C293.54 116.932 293.225 117.017 292.816 117.102C292.407 117.196 291.895 117.247 291.282 117.256C290.276 117.273 289.338 117.094 288.469 116.719C287.6 116.344 286.897 115.764 286.36 114.98C285.823 114.196 285.554 113.212 285.554 112.027V92.6591ZM301.876 105.341V117H298.054V90.8182H301.825V100.56H302.068C302.528 99.5028 303.232 98.6634 304.178 98.0412C305.124 97.419 306.359 97.108 307.885 97.108C309.232 97.108 310.408 97.3849 311.413 97.9389C312.428 98.4929 313.212 99.3196 313.766 100.419C314.328 101.51 314.609 102.874 314.609 104.51V117H310.787V104.97C310.787 103.53 310.416 102.413 309.675 101.621C308.933 100.82 307.902 100.419 306.581 100.419C305.678 100.419 304.868 100.611 304.152 100.994C303.445 101.378 302.886 101.94 302.477 102.682C302.077 103.415 301.876 104.301 301.876 105.341ZM332.149 108.857V97.3636H335.984V117H332.226V113.599H332.021C331.57 114.648 330.845 115.521 329.848 116.22C328.859 116.911 327.628 117.256 326.153 117.256C324.892 117.256 323.776 116.979 322.804 116.425C321.841 115.862 321.082 115.031 320.528 113.932C319.983 112.832 319.71 111.473 319.71 109.854V97.3636H323.533V109.393C323.533 110.732 323.903 111.797 324.645 112.589C325.386 113.382 326.349 113.778 327.534 113.778C328.25 113.778 328.962 113.599 329.669 113.241C330.385 112.884 330.977 112.342 331.446 111.618C331.923 110.893 332.158 109.973 332.149 108.857ZM343.537 124.364C342.966 124.364 342.446 124.317 341.977 124.223C341.508 124.138 341.159 124.044 340.929 123.942L341.849 120.81C342.548 120.997 343.17 121.078 343.716 121.053C344.261 121.027 344.743 120.822 345.16 120.439C345.586 120.055 345.961 119.429 346.285 118.56L346.758 117.256L339.574 97.3636H343.664L348.637 112.602H348.842L353.815 97.3636H357.919L349.826 119.621C349.451 120.643 348.974 121.509 348.395 122.216C347.815 122.932 347.125 123.469 346.324 123.827C345.522 124.185 344.593 124.364 343.537 124.364ZM365.333 105.341V117H361.511V97.3636H365.18V100.56H365.423C365.875 99.5199 366.582 98.6847 367.545 98.054C368.517 97.4233 369.74 97.108 371.214 97.108C372.552 97.108 373.724 97.3892 374.73 97.9517C375.735 98.5057 376.515 99.3324 377.069 100.432C377.623 101.531 377.9 102.891 377.9 104.51V117H374.078V104.97C374.078 103.547 373.707 102.435 372.966 101.634C372.224 100.824 371.206 100.419 369.91 100.419C369.024 100.419 368.235 100.611 367.545 100.994C366.863 101.378 366.322 101.94 365.922 102.682C365.529 103.415 365.333 104.301 365.333 105.341ZM386.849 105.341V117H383.027V90.8182H386.798V100.56H387.041C387.501 99.5028 388.204 98.6634 389.15 98.0412C390.096 97.419 391.332 97.108 392.858 97.108C394.204 97.108 395.38 97.3849 396.386 97.9389C397.4 98.4929 398.184 99.3196 398.738 100.419C399.301 101.51 399.582 102.874 399.582 104.51V117H395.76V104.97C395.76 103.53 395.389 102.413 394.647 101.621C393.906 100.82 392.875 100.419 391.554 100.419C390.65 100.419 389.841 100.611 389.125 100.994C388.417 101.378 387.859 101.94 387.45 102.682C387.049 103.415 386.849 104.301 386.849 105.341ZM405.514 117L416.943 94.3977V94.206H403.724V90.8182H421.034V94.321L409.643 117H405.514ZM427.065 117L438.494 94.3977V94.206H425.275V90.8182H442.585V94.321L431.194 117H427.065ZM445.1 117.243C444.401 117.243 443.8 116.996 443.297 116.501C442.794 115.999 442.543 115.393 442.543 114.686C442.543 113.987 442.794 113.391 443.297 112.896C443.8 112.393 444.401 112.142 445.1 112.142C445.799 112.142 446.4 112.393 446.902 112.896C447.405 113.391 447.657 113.987 447.657 114.686C447.657 115.155 447.537 115.585 447.299 115.977C447.069 116.361 446.762 116.668 446.378 116.898C445.995 117.128 445.569 117.243 445.1 117.243ZM461.048 117.396C459.147 117.396 457.511 116.966 456.139 116.105C454.775 115.236 453.727 114.038 452.994 112.513C452.261 110.987 451.895 109.24 451.895 107.271C451.895 105.277 452.27 103.517 453.02 101.991C453.77 100.457 454.826 99.2599 456.19 98.3991C457.554 97.5384 459.16 97.108 461.01 97.108C462.501 97.108 463.831 97.3849 464.998 97.9389C466.166 98.4844 467.108 99.2514 467.824 100.24C468.548 101.229 468.978 102.384 469.115 103.705H465.395C465.19 102.784 464.721 101.991 463.988 101.327C463.264 100.662 462.292 100.33 461.074 100.33C460.008 100.33 459.075 100.611 458.274 101.173C457.481 101.727 456.863 102.52 456.42 103.551C455.977 104.574 455.755 105.784 455.755 107.182C455.755 108.614 455.973 109.849 456.407 110.889C456.842 111.929 457.456 112.734 458.248 113.305C459.049 113.876 459.991 114.162 461.074 114.162C461.798 114.162 462.454 114.03 463.042 113.766C463.639 113.493 464.137 113.105 464.538 112.602C464.947 112.099 465.233 111.494 465.395 110.787H469.115C468.978 112.057 468.565 113.19 467.875 114.188C467.184 115.185 466.26 115.969 465.1 116.54C463.95 117.111 462.599 117.396 461.048 117.396ZM481.474 117.396C479.633 117.396 478.026 116.974 476.654 116.131C475.282 115.287 474.217 114.107 473.458 112.589C472.7 111.072 472.32 109.3 472.32 107.271C472.32 105.234 472.7 103.453 473.458 101.928C474.217 100.402 475.282 99.2173 476.654 98.3736C478.026 97.5298 479.633 97.108 481.474 97.108C483.315 97.108 484.921 97.5298 486.293 98.3736C487.665 99.2173 488.731 100.402 489.489 101.928C490.248 103.453 490.627 105.234 490.627 107.271C490.627 109.3 490.248 111.072 489.489 112.589C488.731 114.107 487.665 115.287 486.293 116.131C484.921 116.974 483.315 117.396 481.474 117.396ZM481.487 114.188C482.68 114.188 483.668 113.872 484.452 113.241C485.237 112.611 485.816 111.771 486.191 110.723C486.575 109.675 486.766 108.52 486.766 107.259C486.766 106.006 486.575 104.855 486.191 103.807C485.816 102.75 485.237 101.902 484.452 101.263C483.668 100.624 482.68 100.304 481.487 100.304C480.285 100.304 479.288 100.624 478.495 101.263C477.711 101.902 477.127 102.75 476.744 103.807C476.369 104.855 476.181 106.006 476.181 107.259C476.181 108.52 476.369 109.675 476.744 110.723C477.127 111.771 477.711 112.611 478.495 113.241C479.288 113.872 480.285 114.188 481.487 114.188ZM494.894 117V97.3636H498.563V100.56H498.806C499.215 99.4773 499.884 98.6335 500.813 98.0284C501.742 97.4148 502.854 97.108 504.15 97.108C505.462 97.108 506.561 97.4148 507.448 98.0284C508.343 98.642 509.003 99.4858 509.429 100.56H509.634C510.103 99.5114 510.848 98.6761 511.871 98.054C512.894 97.4233 514.113 97.108 515.527 97.108C517.309 97.108 518.762 97.6662 519.887 98.7827C521.02 99.8991 521.587 101.582 521.587 103.832V117H517.765V104.19C517.765 102.861 517.402 101.898 516.678 101.301C515.953 100.705 515.088 100.406 514.083 100.406C512.838 100.406 511.871 100.79 511.181 101.557C510.49 102.315 510.145 103.291 510.145 104.484V117H506.336V103.947C506.336 102.882 506.003 102.026 505.338 101.378C504.674 100.73 503.809 100.406 502.743 100.406C502.019 100.406 501.35 100.598 500.736 100.982C500.131 101.357 499.641 101.881 499.266 102.554C498.9 103.227 498.716 104.007 498.716 104.893V117H494.894Z" fill="#030303"/>
<path d="M309.209 146V134.364H309.572V145.636H315.391V146H309.209ZM321.209 146.182C320.447 146.182 319.781 145.983 319.209 145.585C318.641 145.188 318.199 144.648 317.885 143.966C317.571 143.284 317.413 142.515 317.413 141.659C317.413 140.803 317.571 140.034 317.885 139.352C318.203 138.67 318.635 138.131 319.18 137.733C319.726 137.335 320.341 137.136 321.027 137.136C321.535 137.136 322.004 137.244 322.436 137.46C322.872 137.676 323.25 137.975 323.572 138.358C323.894 138.741 324.144 139.182 324.322 139.682C324.504 140.178 324.595 140.708 324.595 141.273V141.636H317.595V141.273H324.232C324.232 140.572 324.088 139.937 323.8 139.369C323.512 138.797 323.125 138.343 322.641 138.006C322.156 137.669 321.618 137.5 321.027 137.5C320.429 137.5 319.887 137.678 319.402 138.034C318.917 138.39 318.529 138.875 318.237 139.489C317.946 140.102 317.792 140.795 317.777 141.568V141.614C317.777 142.375 317.91 143.076 318.175 143.716C318.444 144.352 318.834 144.862 319.345 145.244C319.857 145.627 320.478 145.818 321.209 145.818C321.747 145.818 322.197 145.723 322.561 145.534C322.929 145.345 323.222 145.127 323.442 144.881C323.665 144.634 323.83 144.424 323.936 144.25L324.232 144.455C324.103 144.674 323.91 144.919 323.652 145.188C323.394 145.456 323.065 145.689 322.663 145.886C322.262 146.083 321.777 146.182 321.209 146.182ZM329.352 146.182C328.875 146.182 328.434 146.083 328.028 145.886C327.627 145.689 327.303 145.402 327.057 145.023C326.814 144.644 326.693 144.182 326.693 143.636C326.693 143.341 326.741 143.064 326.835 142.807C326.93 142.545 327.097 142.309 327.335 142.097C327.574 141.884 327.907 141.703 328.335 141.551C328.767 141.4 329.318 141.284 329.989 141.205C330.39 141.159 330.769 141.106 331.125 141.045C331.481 140.985 331.771 140.894 331.994 140.773C332.218 140.652 332.33 140.477 332.33 140.25V139.727C332.33 139.057 332.104 138.519 331.653 138.114C331.203 137.705 330.602 137.5 329.852 137.5C329.239 137.5 328.703 137.636 328.244 137.909C327.786 138.178 327.466 138.557 327.284 139.045L326.943 138.909C327.08 138.545 327.29 138.231 327.574 137.966C327.858 137.701 328.195 137.496 328.585 137.352C328.975 137.208 329.398 137.136 329.852 137.136C330.295 137.136 330.691 137.203 331.04 137.335C331.392 137.464 331.691 137.646 331.938 137.881C332.184 138.112 332.371 138.384 332.5 138.699C332.629 139.013 332.693 139.356 332.693 139.727V146H332.33V144.227H332.284C332.102 144.621 331.866 144.966 331.574 145.261C331.286 145.553 330.953 145.78 330.574 145.943C330.199 146.102 329.792 146.182 329.352 146.182ZM329.352 145.818C329.905 145.818 330.407 145.67 330.858 145.375C331.309 145.076 331.667 144.661 331.932 144.131C332.197 143.597 332.33 142.977 332.33 142.273V140.955C332.223 141.034 332.095 141.104 331.943 141.165C331.795 141.225 331.627 141.28 331.438 141.33C331.252 141.375 331.049 141.415 330.83 141.449C330.61 141.483 330.375 141.515 330.125 141.545C329.345 141.636 328.731 141.775 328.284 141.96C327.837 142.146 327.521 142.379 327.335 142.659C327.15 142.939 327.057 143.265 327.057 143.636C327.057 144.295 327.277 144.824 327.716 145.222C328.159 145.619 328.705 145.818 329.352 145.818ZM335.827 146V137.273H336.19V138.659H336.236C336.44 138.205 336.776 137.841 337.241 137.568C337.711 137.295 338.247 137.159 338.849 137.159C338.895 137.159 338.925 137.159 338.94 137.159C338.955 137.159 338.986 137.159 339.031 137.159V137.523C338.986 137.523 338.955 137.523 338.94 137.523C338.925 137.523 338.895 137.523 338.849 137.523C338.334 137.523 337.876 137.634 337.474 137.858C337.077 138.081 336.762 138.39 336.531 138.784C336.304 139.178 336.19 139.629 336.19 140.136V146H335.827ZM341.393 140.136V146H341.03V137.273H341.393V138.659H341.439C341.643 138.205 341.979 137.841 342.445 137.568C342.914 137.295 343.45 137.159 344.053 137.159C344.636 137.159 345.151 137.286 345.598 137.54C346.045 137.794 346.395 138.144 346.649 138.591C346.903 139.038 347.03 139.553 347.03 140.136V146H346.666V140.136C346.666 139.364 346.424 138.735 345.939 138.25C345.454 137.765 344.825 137.523 344.053 137.523C343.537 137.523 343.079 137.634 342.678 137.858C342.28 138.081 341.965 138.39 341.734 138.784C341.507 139.178 341.393 139.629 341.393 140.136ZM350.169 146V137.273H350.533V146H350.169ZM350.351 135.682C350.252 135.682 350.167 135.646 350.095 135.574C350.023 135.502 349.987 135.417 349.987 135.318C349.987 135.22 350.023 135.134 350.095 135.062C350.167 134.991 350.252 134.955 350.351 134.955C350.449 134.955 350.535 134.991 350.607 135.062C350.679 135.134 350.714 135.22 350.714 135.318C350.714 135.417 350.679 135.502 350.607 135.574C350.535 135.646 350.449 135.682 350.351 135.682ZM354.034 140.136V146H353.67V137.273H354.034V138.659H354.08C354.284 138.205 354.619 137.841 355.085 137.568C355.555 137.295 356.091 137.159 356.693 137.159C357.277 137.159 357.792 137.286 358.239 137.54C358.686 137.794 359.036 138.144 359.29 138.591C359.544 139.038 359.67 139.553 359.67 140.136V146H359.307V140.136C359.307 139.364 359.064 138.735 358.58 138.25C358.095 137.765 357.466 137.523 356.693 137.523C356.178 137.523 355.72 137.634 355.318 137.858C354.92 138.081 354.606 138.39 354.375 138.784C354.148 139.178 354.034 139.629 354.034 140.136ZM365.719 149.455C365.23 149.455 364.779 149.388 364.366 149.256C363.954 149.127 363.598 148.932 363.298 148.67C362.999 148.413 362.776 148.091 362.628 147.705L362.969 147.568C363.101 147.909 363.298 148.191 363.56 148.415C363.825 148.642 364.141 148.811 364.509 148.92C364.88 149.034 365.283 149.091 365.719 149.091C366.628 149.091 367.336 148.85 367.844 148.369C368.351 147.892 368.605 147.163 368.605 146.182V143.818H368.56C368.408 144.303 368.183 144.708 367.884 145.034C367.584 145.356 367.238 145.598 366.844 145.761C366.45 145.92 366.037 146 365.605 146C364.923 146 364.33 145.816 363.827 145.449C363.323 145.081 362.933 144.572 362.656 143.92C362.38 143.269 362.241 142.515 362.241 141.659C362.241 140.795 362.378 140.023 362.651 139.341C362.923 138.659 363.312 138.121 363.815 137.727C364.319 137.333 364.916 137.136 365.605 137.136C366.075 137.136 366.503 137.233 366.889 137.426C367.276 137.616 367.611 137.888 367.895 138.244C368.179 138.597 368.401 139.015 368.56 139.5H368.605V137.273H368.969V146.182C368.969 146.898 368.838 147.498 368.577 147.983C368.315 148.472 367.942 148.839 367.457 149.085C366.973 149.331 366.393 149.455 365.719 149.455ZM365.605 145.636C366.211 145.636 366.738 145.475 367.185 145.153C367.635 144.831 367.984 144.373 368.23 143.778C368.48 143.18 368.605 142.473 368.605 141.659C368.605 140.871 368.484 140.165 368.241 139.54C367.999 138.911 367.652 138.415 367.202 138.051C366.755 137.684 366.223 137.5 365.605 137.5C364.988 137.5 364.454 137.684 364.003 138.051C363.556 138.415 363.211 138.911 362.969 139.54C362.726 140.165 362.605 140.871 362.605 141.659C362.605 142.447 362.726 143.14 362.969 143.739C363.215 144.333 363.562 144.799 364.009 145.136C364.459 145.47 364.991 145.636 365.605 145.636ZM378.79 146.182C378.313 146.182 377.871 146.083 377.466 145.886C377.064 145.689 376.741 145.402 376.494 145.023C376.252 144.644 376.131 144.182 376.131 143.636C376.131 143.341 376.178 143.064 376.273 142.807C376.367 142.545 376.534 142.309 376.773 142.097C377.011 141.884 377.345 141.703 377.773 141.551C378.205 141.4 378.756 141.284 379.426 141.205C379.828 141.159 380.206 141.106 380.562 141.045C380.919 140.985 381.208 140.894 381.432 140.773C381.655 140.652 381.767 140.477 381.767 140.25V139.727C381.767 139.057 381.542 138.519 381.091 138.114C380.64 137.705 380.04 137.5 379.29 137.5C378.676 137.5 378.14 137.636 377.682 137.909C377.223 138.178 376.903 138.557 376.722 139.045L376.381 138.909C376.517 138.545 376.727 138.231 377.011 137.966C377.295 137.701 377.633 137.496 378.023 137.352C378.413 137.208 378.835 137.136 379.29 137.136C379.733 137.136 380.129 137.203 380.477 137.335C380.83 137.464 381.129 137.646 381.375 137.881C381.621 138.112 381.809 138.384 381.938 138.699C382.066 139.013 382.131 139.356 382.131 139.727V146H381.767V144.227H381.722C381.54 144.621 381.303 144.966 381.011 145.261C380.723 145.553 380.39 145.78 380.011 145.943C379.636 146.102 379.229 146.182 378.79 146.182ZM378.79 145.818C379.343 145.818 379.845 145.67 380.295 145.375C380.746 145.076 381.104 144.661 381.369 144.131C381.634 143.597 381.767 142.977 381.767 142.273V140.955C381.661 141.034 381.532 141.104 381.381 141.165C381.233 141.225 381.064 141.28 380.875 141.33C380.689 141.375 380.487 141.415 380.267 141.449C380.047 141.483 379.812 141.515 379.562 141.545C378.782 141.636 378.169 141.775 377.722 141.96C377.275 142.146 376.958 142.379 376.773 142.659C376.587 142.939 376.494 143.265 376.494 143.636C376.494 144.295 376.714 144.824 377.153 145.222C377.597 145.619 378.142 145.818 378.79 145.818ZM385.628 140.136V146H385.264V137.273H385.628V138.659H385.673C385.878 138.205 386.213 137.841 386.679 137.568C387.149 137.295 387.685 137.159 388.287 137.159C388.87 137.159 389.385 137.286 389.832 137.54C390.279 137.794 390.63 138.144 390.884 138.591C391.137 139.038 391.264 139.553 391.264 140.136V146H390.901V140.136C390.901 139.364 390.658 138.735 390.173 138.25C389.688 137.765 389.06 137.523 388.287 137.523C387.772 137.523 387.313 137.634 386.912 137.858C386.514 138.081 386.2 138.39 385.969 138.784C385.741 139.178 385.628 139.629 385.628 140.136ZM397.199 146.182C396.509 146.182 395.913 145.985 395.409 145.591C394.905 145.193 394.517 144.653 394.244 143.972C393.972 143.29 393.835 142.519 393.835 141.659C393.835 140.803 393.973 140.034 394.25 139.352C394.527 138.67 394.917 138.131 395.42 137.733C395.924 137.335 396.517 137.136 397.199 137.136C397.661 137.136 398.087 137.233 398.477 137.426C398.867 137.616 399.206 137.888 399.494 138.244C399.782 138.597 400.002 139.015 400.153 139.5H400.199V134.364H400.562V146H400.199V143.818H400.153C399.994 144.299 399.773 144.718 399.489 145.074C399.205 145.426 398.867 145.699 398.477 145.892C398.091 146.085 397.665 146.182 397.199 146.182ZM397.199 145.818C397.816 145.818 398.348 145.636 398.795 145.273C399.246 144.905 399.593 144.409 399.835 143.784C400.078 143.155 400.199 142.447 400.199 141.659C400.199 140.871 400.076 140.165 399.83 139.54C399.587 138.911 399.241 138.415 398.79 138.051C398.343 137.684 397.813 137.5 397.199 137.5C396.585 137.5 396.053 137.684 395.602 138.051C395.155 138.415 394.809 138.911 394.562 139.54C394.32 140.165 394.199 140.871 394.199 141.659C394.199 142.447 394.32 143.155 394.562 143.784C394.805 144.409 395.15 144.905 395.597 145.273C396.047 145.636 396.581 145.818 397.199 145.818ZM414.92 137.273C414.864 136.477 414.559 135.824 414.006 135.312C413.456 134.801 412.731 134.545 411.83 134.545C411.239 134.545 410.71 134.659 410.244 134.886C409.778 135.114 409.411 135.426 409.142 135.824C408.873 136.218 408.739 136.67 408.739 137.182C408.739 137.477 408.788 137.75 408.886 138C408.985 138.25 409.134 138.479 409.335 138.688C409.54 138.892 409.795 139.078 410.102 139.244C410.413 139.407 410.777 139.553 411.193 139.682L412.511 140.091C413.015 140.246 413.451 140.42 413.818 140.614C414.186 140.807 414.489 141.025 414.727 141.267C414.97 141.506 415.15 141.773 415.267 142.068C415.384 142.36 415.443 142.686 415.443 143.045C415.443 143.652 415.288 144.191 414.977 144.665C414.667 145.138 414.233 145.509 413.676 145.778C413.119 146.047 412.473 146.182 411.739 146.182C411.03 146.182 410.411 146.059 409.881 145.812C409.35 145.562 408.93 145.22 408.619 144.784C408.313 144.345 408.14 143.841 408.102 143.273H408.466C408.504 143.773 408.661 144.214 408.938 144.597C409.214 144.979 409.589 145.278 410.062 145.494C410.54 145.71 411.098 145.818 411.739 145.818C412.405 145.818 412.989 145.703 413.489 145.472C413.992 145.237 414.383 144.911 414.659 144.494C414.939 144.078 415.08 143.595 415.08 143.045C415.08 142.629 414.989 142.263 414.807 141.949C414.625 141.631 414.339 141.35 413.949 141.108C413.559 140.866 413.049 140.648 412.42 140.455L411.102 140.045C410.189 139.758 409.506 139.377 409.051 138.903C408.6 138.43 408.375 137.856 408.375 137.182C408.375 136.61 408.525 136.098 408.824 135.648C409.123 135.193 409.532 134.835 410.051 134.574C410.574 134.312 411.167 134.182 411.83 134.182C412.496 134.182 413.081 134.314 413.585 134.58C414.089 134.845 414.489 135.21 414.784 135.676C415.08 136.142 415.246 136.674 415.284 137.273H414.92ZM418.581 140.136V146H418.217V134.364H418.581V138.659H418.626C418.831 138.205 419.166 137.841 419.632 137.568C420.102 137.295 420.638 137.159 421.24 137.159C421.823 137.159 422.339 137.286 422.786 137.54C423.232 137.794 423.583 138.144 423.837 138.591C424.09 139.038 424.217 139.553 424.217 140.136V146H423.854V140.136C423.854 139.364 423.611 138.735 423.126 138.25C422.642 137.765 422.013 137.523 421.24 137.523C420.725 137.523 420.267 137.634 419.865 137.858C419.467 138.081 419.153 138.39 418.922 138.784C418.695 139.178 418.581 139.629 418.581 140.136ZM429.493 146.182C429.016 146.182 428.574 146.083 428.169 145.886C427.768 145.689 427.444 145.402 427.197 145.023C426.955 144.644 426.834 144.182 426.834 143.636C426.834 143.341 426.881 143.064 426.976 142.807C427.071 142.545 427.237 142.309 427.476 142.097C427.714 141.884 428.048 141.703 428.476 141.551C428.908 141.4 429.459 141.284 430.129 141.205C430.531 141.159 430.91 141.106 431.266 141.045C431.622 140.985 431.911 140.894 432.135 140.773C432.358 140.652 432.47 140.477 432.47 140.25V139.727C432.47 139.057 432.245 138.519 431.794 138.114C431.343 137.705 430.743 137.5 429.993 137.5C429.379 137.5 428.843 137.636 428.385 137.909C427.927 138.178 427.607 138.557 427.425 139.045L427.084 138.909C427.22 138.545 427.43 138.231 427.714 137.966C427.999 137.701 428.336 137.496 428.726 137.352C429.116 137.208 429.538 137.136 429.993 137.136C430.436 137.136 430.832 137.203 431.18 137.335C431.533 137.464 431.832 137.646 432.078 137.881C432.324 138.112 432.512 138.384 432.641 138.699C432.769 139.013 432.834 139.356 432.834 139.727V146H432.47V144.227H432.425C432.243 144.621 432.006 144.966 431.714 145.261C431.427 145.553 431.093 145.78 430.714 145.943C430.339 146.102 429.932 146.182 429.493 146.182ZM429.493 145.818C430.046 145.818 430.548 145.67 430.999 145.375C431.449 145.076 431.807 144.661 432.072 144.131C432.338 143.597 432.47 142.977 432.47 142.273V140.955C432.364 141.034 432.235 141.104 432.084 141.165C431.936 141.225 431.768 141.28 431.578 141.33C431.393 141.375 431.19 141.415 430.97 141.449C430.75 141.483 430.516 141.515 430.266 141.545C429.485 141.636 428.872 141.775 428.425 141.96C427.978 142.146 427.661 142.379 427.476 142.659C427.29 142.939 427.197 143.265 427.197 143.636C427.197 144.295 427.417 144.824 427.857 145.222C428.3 145.619 428.845 145.818 429.493 145.818ZM435.967 146V137.273H436.331V138.659H436.376C436.581 138.205 436.916 137.841 437.382 137.568C437.852 137.295 438.388 137.159 438.99 137.159C439.036 137.159 439.066 137.159 439.081 137.159C439.096 137.159 439.126 137.159 439.172 137.159V137.523C439.126 137.523 439.096 137.523 439.081 137.523C439.066 137.523 439.036 137.523 438.99 137.523C438.475 137.523 438.017 137.634 437.615 137.858C437.217 138.081 436.903 138.39 436.672 138.784C436.445 139.178 436.331 139.629 436.331 140.136V146H435.967ZM441.216 146V137.273H441.58V146H441.216ZM441.398 135.682C441.299 135.682 441.214 135.646 441.142 135.574C441.07 135.502 441.034 135.417 441.034 135.318C441.034 135.22 441.07 135.134 441.142 135.062C441.214 134.991 441.299 134.955 441.398 134.955C441.496 134.955 441.581 134.991 441.653 135.062C441.725 135.134 441.761 135.22 441.761 135.318C441.761 135.417 441.725 135.502 441.653 135.574C441.581 135.646 441.496 135.682 441.398 135.682ZM445.081 140.136V146H444.717V137.273H445.081V138.659H445.126C445.331 138.205 445.666 137.841 446.132 137.568C446.602 137.295 447.138 137.159 447.74 137.159C448.323 137.159 448.839 137.286 449.286 137.54C449.732 137.794 450.083 138.144 450.337 138.591C450.59 139.038 450.717 139.553 450.717 140.136V146H450.354V140.136C450.354 139.364 450.111 138.735 449.626 138.25C449.142 137.765 448.513 137.523 447.74 137.523C447.225 137.523 446.767 137.634 446.365 137.858C445.967 138.081 445.653 138.39 445.422 138.784C445.195 139.178 445.081 139.629 445.081 140.136ZM456.766 149.455C456.277 149.455 455.826 149.388 455.413 149.256C455 149.127 454.644 148.932 454.345 148.67C454.046 148.413 453.822 148.091 453.675 147.705L454.016 147.568C454.148 147.909 454.345 148.191 454.607 148.415C454.872 148.642 455.188 148.811 455.555 148.92C455.927 149.034 456.33 149.091 456.766 149.091C457.675 149.091 458.383 148.85 458.891 148.369C459.398 147.892 459.652 147.163 459.652 146.182V143.818H459.607C459.455 144.303 459.23 144.708 458.93 145.034C458.631 145.356 458.285 145.598 457.891 145.761C457.497 145.92 457.084 146 456.652 146C455.97 146 455.377 145.816 454.874 145.449C454.37 145.081 453.98 144.572 453.703 143.92C453.427 143.269 453.288 142.515 453.288 141.659C453.288 140.795 453.425 140.023 453.697 139.341C453.97 138.659 454.358 138.121 454.862 137.727C455.366 137.333 455.963 137.136 456.652 137.136C457.122 137.136 457.55 137.233 457.936 137.426C458.322 137.616 458.658 137.888 458.942 138.244C459.226 138.597 459.447 139.015 459.607 139.5H459.652V137.273H460.016V146.182C460.016 146.898 459.885 147.498 459.624 147.983C459.362 148.472 458.989 148.839 458.504 149.085C458.019 149.331 457.44 149.455 456.766 149.455ZM456.652 145.636C457.258 145.636 457.785 145.475 458.232 145.153C458.682 144.831 459.031 144.373 459.277 143.778C459.527 143.18 459.652 142.473 459.652 141.659C459.652 140.871 459.531 140.165 459.288 139.54C459.046 138.911 458.699 138.415 458.249 138.051C457.802 137.684 457.269 137.5 456.652 137.5C456.035 137.5 455.5 137.684 455.05 138.051C454.603 138.415 454.258 138.911 454.016 139.54C453.773 140.165 453.652 140.871 453.652 141.659C453.652 142.447 453.773 143.14 454.016 143.739C454.262 144.333 454.608 144.799 455.055 145.136C455.506 145.47 456.038 145.636 456.652 145.636Z" fill="black"/>
<ellipse cx="117.5" cy="116" rx="68.5" ry="71" fill="#FF974F"/>
</svg>
