<?xml version="1.0" encoding="UTF-8"?>
<svg version="1.1" viewBox="0 0 1400 1400" width="120" height="120" xmlns="http://www.w3.org/2000/svg">
<path transform="translate(647,402)" d="m0 0 2 1c1.79 0.26 3.6 0.46 5.4 0.65 1.11 0.12 2.22 0.23 3.36 0.35 1.19 0.13 2.39 0.25 3.62 0.38 9.25 0.98 18.5 2.11 27.7 3.56 5.37 0.84 10.7 1.53 16.2 2.12 4.13 0.46 8.2 0.93 12.2 1.94 3 0.7 5.93 1.21 8.99 1.54 0.81 0.08 1.62 0.17 2.46 0.26 1.63 0.17 3.27 0.34 4.9 0.5 3.23 0.33 6.13 0.67 9.21 1.7 1.77 0.25 3.54 0.46 5.31 0.65 1.07 0.12 2.14 0.23 3.23 0.35 1.14 0.13 2.29 0.25 3.46 0.38 10.4 1.16 20.7 2.55 31.1 4.3 1.72 0.28 3.45 0.53 5.17 0.78 20.7 2.99 38 10.6 52.8 25.5 0.83 0.81 1.66 1.63 2.52 2.46 11.6 11.8 20.3 25.1 23.5 41.5l1 1c4.58 22.4 3.43 46.1 3.32 68.8-0.01 4-0.01 8 0 12 0 3.9 0 7.8-0.01 11.7-0.01 1.84-0.01 3.68-0.01 5.52 0 10.5-0.45 20.6-2.3 31-0.19 1.13-0.38 2.27-0.58 3.43-2.91 16.4-14.1 31-27.4 40.6h-2l-1 3c-2.31 1.2-4.53 2.22-6.94 3.19-0.64 0.27-1.29 0.54-1.96 0.82-4.79 1.99-4.79 1.99-7.1 1.99 0.89 12 2.13 22.5 7.69 33.2 1.31 2.75 1.31 2.75 1.31 5.75 0.83 0 0.83 0 1.68 0.01 13.5 0.08 27 0.17 40.5 0.28 6.54 0.05 13.1 0.09 19.6 0.13 6.31 0.04 12.6 0.09 18.9 0.14 2.41 0.02 4.81 0.03 7.22 0.04 3.37 0.02 6.74 0.05 10.1 0.08 0.99 0 1.98 0.01 3 0.01 10 0.12 19.6 1.99 26.9 9.32 6.89 8.31 8.86 16.3 7.98 27-0.45 3.05-0.96 6.06-1.56 9.08-1.27 8.47 0.64 12.7 5.12 19.7 0.55 0.89 1.1 1.78 1.67 2.7 3.23 5.19 6.6 10.3 10.2 15.2 2.53 3.67 4.69 7.55 6.9 11.4 1.48 2.53 3.03 4.95 4.68 7.37 2.97 4.36 5.58 8.89 8.21 13.5 2.8 4.76 5.8 9.4 8.79 14 1.13 1.77 2.25 3.54 3.38 5.31 1.94 3.06 3.89 6.1 5.85 9.14 21.1 32.7 21.1 32.7 21.1 52.4 0.02 1.02 0.03 2.04 0.05 3.1 0.01 8.58-1.41 16.4-5.86 23.8-0.43 0.73-0.85 1.46-1.29 2.21-0.4 0.65-0.8 1.31-1.21 1.98-0.6 1.01-1.2 2.02-1.81 3.06-0.59 0.96-0.59 0.96-1.19 1.94 2.95 1.47 5.56 1.12 8.85 1.11h2.16c2.41 0 4.81 0 7.21-0.01 1.72 0 3.44-0.01 5.16-0.01 3.72 0 7.44-0.01 11.2-0.01 5.92-0.02 11.8-0.02 17.8-0.03 13.7-0.01 27.4-0.03 41.1-0.06 12.4-0.02 24.9-0.03 37.4-0.04 4.9-0.01 9.8-0.01 14.7-0.03 18.9-0.04 37.7-0.02 56.6 0.4 1.68 0.04 3.36 0.07 5.04 0.11 8.48 0.16 16.7 0.43 24.9 2.57 0.8 0.19 1.6 0.38 2.42 0.58 22.9 5.67 44.6 23.4 57.4 42.9 1.08 1.82 2.15 3.66 3.19 5.5 0.77 1.24 0.77 1.24 1.55 2.51 11.9 21.1 13.6 47.4 7.45 70.5-0.44 1.67-0.44 1.67-0.88 3.38-7.03 24.9-24.1 45.2-46.4 57.9-1.88 0.97-3.78 1.85-5.72 2.7-0.7 0.34-1.41 0.67-2.13 1.02-14.4 6.69-28.8 8.28-44.5 8.23-1.56 0.01-3.12 0.01-4.68 0.01-4.27 0.01-8.54 0.01-12.8 0-4.65 0-9.31 0.01-14 0.01-8.15 0.01-16.3 0.01-24.5 0.01-12.1-0.01-24.2 0-36.4 0.01-22.9 0.01-45.8 0.01-68.8 0.01-17.7 0-35.4 0-53.1 0.01h-7.62-11.5c-35.6 0.01-71.2 0.01-107 0.01h-2.04-22.4-2.05-8.19c-43.2-0.01-86.4 0-130 0.02-10.9 0-21.8 0.01-32.7 0.01h-2.03c-36.2 0.02-72.4 0.02-109 0.01h-15.3-3.8c-18.9 0-37.9 0.01-56.8 0.02-21.5 0.01-43.1 0.01-64.6 0-12-0.01-24.1-0.01-36.2 0.01-8.06 0.01-16.1 0-24.2-0.01-4.59 0-9.18-0.01-13.8 0.01-4.18 0.01-8.36 0-12.5-0.01-1.5 0-2.99 0-4.49 0.01-19.5 0.09-37.4-3.73-54-14.4-1.18-0.65-2.37-1.3-3.56-1.94-7.77-4.44-13.8-10.2-19.4-17.1-0.75-0.83-0.75-0.83-1.52-1.68-12-13.2-18.8-28.8-22-46.1-0.45-2.28-0.98-4.52-1.52-6.77-2.46-11-0.89-21.7 2.09-32.4 0.23-0.93 0.46-1.87 0.69-2.83 2.73-10.9 7.16-20.8 13.3-30.2 0.7-1.08 0.7-1.08 1.42-2.18 1.13-1.65 2.35-3.24 3.58-4.82h2c0.09-0.84 0.09-0.84 0.19-1.69 1.68-4.78 5.48-7.14 9.81-9.31l1-3c1.32-0.7 2.65-1.37 4-2 1.02-0.98 2.02-1.98 3-3 3.98-3.56 8.01-5.54 12.9-7.56 0.68-0.29 1.36-0.58 2.06-0.88 1.36-0.58 2.72-1.16 4.09-1.73 1.87-0.79 3.74-1.6 5.6-2.42 20.6-8.61 44-6.82 65.8-6.71 4.57 0.01 9.13 0.02 13.7 0.02 8.62 0.01 17.2 0.03 25.8 0.06 9.82 0.04 19.6 0.05 29.5 0.07 20.2 0.03 40.4 0.08 60.5 0.15-0.5-0.78-0.99-1.57-1.5-2.38-1.5-2.62-1.5-2.62-1.5-4.62h-2c-8.4-16.4-10.8-31-5.72-48.8 3.62-11 10.9-20.7 17.2-30.3 2.09-3.17 4.07-6.38 5.99-9.65 1.95-3.33 4.14-6.24 6.56-9.25l3-6c3.59-6.16 7.36-12.2 11.5-18 3.29-4.62 6.25-9.4 9.2-14.2 2.21-3.64 4.5-7.24 6.79-10.8 2.05-3.24 4.09-6.49 6.13-9.74 1.22-1.93 2.47-3.84 3.74-5.75 4.39-6.87 4.39-6.87 4.18-14.7-2.17-11-2.96-23.6 1.96-33.9 0.5-0.62 0.99-1.24 1.5-1.88h2c0.37-1.14 0.37-1.14 0.75-2.31 2.62-5.64 8.68-7.6 14.2-9.69 3.28-0.76 6.34-1.13 9.7-1.16 0.92-0.01 1.83-0.02 2.78-0.03 0.99 0 1.98-0.01 3-0.02 1.06-0.01 2.11-0.02 3.2-0.03 3.48-0.03 6.95-0.05 10.4-0.08 2.42-0.02 4.83-0.04 7.25-0.06l19-0.15c6.48-0.05 13-0.11 19.4-0.16 12.7-0.11 25.4-0.21 38.2-0.31 5.32-10.5 9.21-23 9.06-34.8-0.01-1.47-0.01-1.47-0.02-2.96-0.02-0.74-0.03-1.47-0.04-2.23-0.75-0.3-1.5-0.59-2.27-0.89-18.1-7.34-31-21.4-39.4-38.9-2.23-5.57-3.33-11.3-4.29-17.2-0.17-0.95-0.35-1.9-0.52-2.89-0.81-5.72-0.64-11.5-0.66-17.3-0.02-2.59-0.04-5.19-0.07-7.78-0.03-4.07-0.06-8.14-0.08-12.2-0.01-3.94-0.05-7.88-0.1-11.8 0.01-1.83 0.01-1.83 0.01-3.69-0.09-6.44-0.26-10.4-4.58-15.3-3.63-5.44-7.25-10.9-10.9-16.3-0.47-0.72-0.95-1.44-1.44-2.17-1.3-1.95-2.59-3.9-3.89-5.85-7.43-11.2-15-22.3-22.7-33.3-0.53-0.78-1.07-1.55-1.62-2.34-0.89-1.27-1.81-2.51-2.75-3.73-2.02-2.69-2.72-4.52-3.25-7.87 0.71-4.33 2.2-5.72 5.56-8.44 2.87-1.44 5.34-1.11 8.54-1.1 1.3 0.01 2.6 0.01 3.94 0.01l4.14 0.03c1.39 0 2.78 0.01 4.17 0.01 3.4 0.01 6.81 0.03 10.2 0.05-4.6-8.78-9.25-17.5-14.1-26.2-0.42-0.74-0.83-1.49-1.26-2.26-1.98-3.56-3.99-7.1-6.06-10.6-0.55-0.95-0.55-0.95-1.12-1.92-0.99-1.7-2-3.4-3-5.09-1.42-2.77-2.26-4.83-2.5-7.92 1.75-3.13 1.75-3.13 4-6 0.43-0.62 0.87-1.24 1.31-1.88 2.78-1.85 5.46-1.36 8.69-1.12zm62 10 4 1zm-48 12c0.44 3.76 1.62 6.12 3.79 9.18 1.4 2.11 2.58 4.28 3.77 6.51 3.33 6.19 6.85 12.2 10.4 18.3 2.75 4.72 5.43 9.46 8.05 14.2 0.88 1.71 0.88 1.71 2 2.74 0.07 2.02 0.08 4.04 0.06 6.06-0.01 1.11-0.02 2.21-0.02 3.35-0.02 0.85-0.03 1.71-0.04 2.59-6.48 2.67-6.48 2.67-10 2-0.91-0.99-1.8-1.99-2.69-3-4.05-3.89-8.44-3.47-13.8-3.38-2.86 0.08-5.7 0.22-8.56 0.38-1.02 2.88-1.02 2.88-0.23 5.73 0.41 0.58 0.83 1.15 1.26 1.74 0.46 0.65 0.91 1.29 1.39 1.96 0.5 0.68 1 1.37 1.52 2.07 1.03 1.45 2.06 2.9 3.09 4.34 0.51 0.71 1.02 1.42 1.54 2.16 1.87 2.62 3.66 5.31 5.43 8 3.13 4.73 6.34 9.4 9.56 14.1 3.77 5.46 7.43 11 10.9 16.6 1.5 2.41 1.5 2.41 3.6 4.57 2.37 3.37 2.44 5.2 2.44 9.29 0.01 1.95 0.01 1.95 0.03 3.94-0.01 0.7-0.01 1.39-0.01 2.1-0.02 2.18 0 4.37 0.01 6.55 0.03 3.86 0.03 7.72 0.03 11.6 0 6.16 0.02 12.3 0.06 18.5 0.01 2.13 0 4.26-0.01 6.39 0.03 16.2 4.07 30.6 15.4 42.6 4.36 4.26 4.36 4.26 9.96 5.85v2c1.44 0.65 2.87 1.29 4.31 1.94 0.8 0.36 1.6 0.72 2.43 1.09 2.35 1.05 2.35 1.05 5.26 1.97 0.9 0.34 1.8 0.69 2.73 1.05 3.68 1.07 6.77 1.21 10.6 1.22 0.71 0.01 1.42 0.01 2.15 0.02 2.32 0.01 4.65 0.01 6.98 0.01 1.63 0 3.25 0.01 4.88 0.01 3.41 0.01 6.82 0.01 10.2 0.01 4.36-0.01 8.71 0.01 13.1 0.03 3.36 0.01 6.72 0.02 10.1 0.01 1.6 0 3.2 0.01 4.81 0.02 8.33 0.04 15.7-0.07 23.5-3.38 0.94-0.33 1.88-0.65 2.86-0.99 5.23-1.99 9.16-4.03 13.1-8.01v-2c0.96-0.4 0.96-0.4 1.94-0.81 2.39-1.08 2.39-1.08 3.06-4.19 0.99-0.33 1.98-0.66 3-1 4.26-4.86 5.96-10.6 7.42-16.8 0.58-2.22 0.58-2.22 1.58-3.22 1.06-5.63 1.15-11.1 1.15-16.8 0-0.97 0-1.93 0.01-2.92 0-3.18 0.01-6.35 0.01-9.53 0-2.22 0-4.44 0.01-6.66 0-4.65 0.01-9.31 0.01-14 0-5.93 0.01-11.9 0.03-17.8 0.01-4.59 0.01-9.17 0.01-13.8 0-2.19 0-4.37 0.01-6.56 0.08-23.5-1.64-47.5-18.2-66h-2c-0.4-0.96-0.4-0.96-0.81-1.94-1.08-2.39-1.08-2.39-4.19-3.06-0.31-0.62-0.61-1.24-0.93-1.88-4.17-8.28-19.8-13.2-28.1-16.1-3.76-0.93-7.55-1.58-11.4-2.19-1.5-0.25-1.5-0.25-3.04-0.51-6.18-1-12.3-1.8-18.6-2.12-2.01-0.18-2.01-0.18-4.01-1.18-2.86-0.43-5.72-0.81-8.59-1.16-0.85-0.1-1.7-0.21-2.58-0.32-2.74-0.34-5.47-0.68-8.21-1.02-2.72-0.34-5.45-0.68-8.18-1.02-1.69-0.21-3.39-0.42-5.09-0.63-0.78-0.1-1.55-0.19-2.35-0.29-0.68-0.09-1.35-0.17-2.05-0.26-1.95-0.3-1.95-0.3-4-0.82-3.92-0.97-8.03-0.95-12-1.2-2.9-0.28-2.9-0.28-4.9-1.28-1.45-0.22-2.9-0.39-4.35-0.54-1.28-0.13-1.28-0.13-2.58-0.26-0.89-0.09-1.78-0.17-2.69-0.26-1.35-0.14-1.35-0.14-2.72-0.28l-6.66-0.66v-1c-2.83-0.34-5.67-0.67-8.5-1-0.79-0.1-1.58-0.19-2.4-0.29-5.07-0.58-9.99-0.8-15.1-0.71zm82.2 257c-1.23 2.22-1.7 3.83-2.01 6.33-0.12 0.8-0.23 1.61-0.34 2.44s-0.21 1.66-0.32 2.52c-0.75 5.85-1.77 11.2-3.9 16.7-0.83 2.55-0.83 2.55-0.6 7.11h78c-2.18-8.75-2.18-8.75-4.62-17.4-1.49-5.31-1.9-10.5-2.17-16 0.07-2.48 0.07-2.48-1.21-3.55-1.89-0.11-3.78-0.16-5.67-0.18-1.21-0.01-2.42-0.02-3.67-0.04-1.32 0-2.64-0.01-4-0.02-0.66 0-1.33-0.01-2.02-0.01-3.54-0.02-7.08-0.04-10.6-0.05-3.66-0.01-7.32-0.04-11-0.08-2.8-0.03-5.61-0.03-8.42-0.04-2.01-0.01-4.01-0.03-6.02-0.06-1.21 0-2.43 0.01-3.69 0.01-1.07-0.01-2.14-0.01-3.25-0.02-2.79 0.24-2.79 0.24-4.5 2.39zm-24.2 22.1 1 2zm-118 33v3h-2c-2.38 6.26-1.79 11.2-0.75 17.7 0.3 2.04 0.59 4.08 0.88 6.11 0.15 1.03 0.3 2.06 0.45 3.12 0.77 5.63 1.27 11.3 1.77 17 0.3 4.19 0.3 4.19 1.65 8.12 0.28 1.8 0.5 3.61 0.71 5.41 0.13 1.14 0.26 2.28 0.39 3.45 0.14 1.24 0.28 2.48 0.42 3.76 0.15 1.29 0.3 2.58 0.45 3.91 0.39 3.46 0.78 6.91 1.17 10.4 0.38 3.41 0.77 6.82 1.16 10.2 0.15 1.34 0.3 2.69 0.45 4.04 0.08 0.66 0.16 1.32 0.23 2.01 0.97 8.52 1.93 17 2.88 25.6 0.27 2.38 0.54 4.76 0.8 7.15 0.12 1.09 0.25 2.19 0.37 3.33 0.11 1 0.23 2 0.34 3.03 0.1 0.88 0.2 1.75 0.3 2.65 0.23 2.16 0.23 2.16 1.33 4.11 0.33 2.47 0.62 4.93 0.87 7.41 0.08 0.75 0.16 1.5 0.24 2.28 0.17 1.61 0.34 3.23 0.5 4.85 0.35 3.37 0.71 6.75 1.08 10.1 0.58 5.48 1.17 11 1.74 16.4 0.37 3.45 0.75 6.89 1.13 10.3 0.1 0.99 0.21 1.99 0.31 3.02 0.58 5.05 1.25 9.21 4.13 13.5 2.99 1 4.94 1.12 8.05 1.12 1.06 0.01 2.11 0.01 3.19 0.01 1.16 0 2.32-0.01 3.51-0.01h3.72 10.2c3.68-0.01 7.36-0.01 11-0.01h19.1c9.21-0.01 18.4-0.02 27.6-0.02 15 0 29.9-0.01 44.9-0.01l43.6-0.03h2.71 13.5c37.3-0.01 74.6-0.03 112-0.05 0.06-0.94 0.12-1.87 0.19-2.84 0.08-1.24 0.17-2.49 0.26-3.77 0.08-1.22 0.16-2.45 0.25-3.71 0.37-4.54 1.03-9 1.7-13.5 0.78-5.3 1.4-10.6 2.04-15.9 0.12-1.05 0.25-2.11 0.38-3.19 0.69-5.79 1.35-11.6 2-17.4 0.14-1.19 0.27-2.38 0.41-3.61 0.26-2.3 0.52-4.61 0.77-6.92 0.11-1.04 0.23-2.08 0.35-3.15 0.1-0.92 0.2-1.84 0.31-2.78 0.34-2.22 0.34-2.22 1.34-4.22 0.34-2.76 0.64-5.5 0.9-8.27 0.08-0.83 0.17-1.66 0.25-2.52 0.27-2.67 0.53-5.35 0.79-8.02 0.97-10 1.95-20 3.57-30 0.87-5.63 1.48-11.3 2.12-17 1.09-9.58 2.2-19.2 3.52-28.7 0.14-1.01 0.14-1.01 0.28-2.05 0.44-3.18 0.89-6.36 1.35-9.54 1.93-12.1 1.93-12.1 0.16-24-4.85-4.85-12.1-4.18-18.5-4.21-1.27 0.01-2.54 0.01-3.85 0.02-1.37-0.01-2.75-0.01-4.12-0.01-3.77-0.01-7.54-0.01-11.3 0-4.07 0-8.14 0-12.2-0.01-7.97-0.01-15.9-0.01-23.9 0h-19.4-2.79-5.61c-17.6-0.01-35.1 0-52.6 0.01-15 0.01-30.1 0.01-45.2 0-17.5-0.01-35-0.02-52.5-0.01h-5.59-2.78c-6.47 0.01-12.9 0-19.4 0-7.88-0.01-15.8-0.01-23.6 0-4.02 0.01-8.03 0.01-12 0-3.68 0-7.36 0-11 0.01-1.96 0.01-3.92 0-5.88-0.01-5.91 0.03-11 0.21-16.6 2.27zm344 64 1 2zm18 1c-2.41 14.3-4.41 28.6-5.81 43.1-0.07 0.69-0.14 1.38-0.21 2.1-0.61 5.91-0.61 5.91-0.98 11.8 1 1.23 1 1.23 3.02 1.03 0.92-0.03 1.84-0.06 2.79-0.09 5.93-0.05 11.7 0.37 17.6 0.94 0.86 0.07 1.73 0.15 2.62 0.23 8.22 0.84 8.22 0.84 11.9 2.89 2.15 3.23 2.3 4.31 2.31 8.06 0.02 0.88 0.04 1.76 0.05 2.66-0.12 0.75-0.24 1.51-0.36 2.28-3.69 2.46-6.49 2.26-10.8 2.19h-2.09c-4.47-0.04-8.73-0.54-13.2-1.19-2.41-0.16-4.83-0.26-7.25-0.31-1.2-0.04-2.4-0.08-3.64-0.12-3.13 0.11-3.13 0.11-4.74 2.1-1.63 2.77-2.03 4.93-2.47 8.11-0.16 1.14-0.32 2.29-0.48 3.46-0.16 1.22-0.32 2.44-0.48 3.7-0.17 1.24-0.34 2.49-0.52 3.77-1.15 8.64-2.11 17.3-2.82 26-0.28 3.27-0.56 6.18-1.6 9.31-0.23 2.39-0.41 4.79-0.56 7.19-0.09 1.27-0.17 2.54-0.26 3.85-0.06 0.98-0.12 1.95-0.18 2.96 5.6 2.34 10.9 2.39 16.8 2.48 1.57 0.02 1.57 0.02 3.17 0.05 2.22 0.02 4.44 0.04 6.65 0.06 2.25 0.02 4.5 0.06 6.74 0.12 15.1 0.4 25 0.09 36.4-10.4 9.12-9.55 11.8-19.6 11.5-32.5-0.93-9.93-5.34-18.3-10.4-26.7h-2c-0.19-0.78-0.37-1.57-0.56-2.38-1.61-4.05-3.75-7.04-6.29-10.6-2.64-3.76-5.09-7.62-7.53-11.5-0.44-0.7-0.88-1.39-1.33-2.11-0.41-0.67-0.83-1.33-1.25-2.01-0.37-0.59-0.74-1.18-1.12-1.79-0.92-1.65-0.92-1.65-1.92-4.65h-2c-0.25-0.66-0.5-1.32-0.75-2-1.01-2.41-2.05-4.77-3.19-7.12-0.32-0.67-0.63-1.33-0.96-2.01-1.16-1.97-2.46-3.29-4.1-4.87-2.04-2.86-3.83-5.66-5.38-8.81-2.19-4.31-4.88-8.21-7.62-12.2-0.47-0.7-0.94-1.41-1.43-2.13-1.14-1.66-2.35-3.27-3.57-4.87h-2zm-379 1.12c-4.01 4.45-6.9 9.81-9.94 14.9-8.04 13.5-16.1 26.9-25.2 39.7-1.26 1.78-2.48 3.58-3.68 5.4-1.42 2.11-2.87 4.14-4.38 6.19-2.21 3.06-3.91 6.21-5.51 9.63-0.99 1.99-0.99 1.99-2.42 4.37-2.83 4.72-5.19 9.66-7.57 14.6-0.35 0.71-0.7 1.41-1.05 2.14-3.56 8.07-2.78 16.4 0.11 24.6 4.2 9.82 9.72 16 18.9 21.3 0.95 0.6 1.9 1.2 2.88 1.81 7.69 2.93 16.7 2.33 24.8 2.29 0.96 0 1.92-0.01 2.91-0.01 3.03 0 6.05-0.01 9.08-0.03 2.07 0 4.14-0.01 6.21-0.01 5.03-0.01 10.1-0.03 15.1-0.05 0-5.38-0.82-10.7-1.44-16.1-0.13-1.21-0.27-2.42-0.41-3.67-0.19-1.73-0.19-1.73-0.4-3.49-0.12-1.06-0.24-2.12-0.36-3.21-0.25-2.55-0.25-2.55-1.39-4.57-0.16-1.89-0.28-3.79-0.38-5.69-0.44-6.84-1.2-13.6-2.06-20.4-0.12-1.01-0.24-2.02-0.37-3.06-0.12-0.95-0.25-1.91-0.37-2.89-0.11-0.85-0.22-1.71-0.33-2.59-0.5-2.39-1.3-4.21-2.49-6.34-3.58-0.03-7.17-0.05-10.8-0.06-1.02-0.01-2.03-0.02-3.08-0.03-0.98 0-1.96 0-2.97-0.01-1.35-0.01-1.35-0.01-2.73-0.01-2.32 0.1-4.24 0.49-6.47 1.11-9.87 0.89-9.87 0.89-13.6-2-0.71-0.99-0.71-0.99-1.44-2h-2l1-11c4.66-1.87 8.46-2.5 13.4-2.85 0.8-0.07 1.59-0.13 2.4-0.19 2.52-0.21 5.04-0.4 7.55-0.58 1.71-0.14 3.43-0.28 5.14-0.41 4.18-0.33 8.37-0.65 12.6-0.97-0.07-0.55-0.14-1.11-0.21-1.68-2.32-18.4-4.56-36.9-6.79-55.3-1.16-0.11-1.16-0.11-2.31 1.12zm6.31 29.9 1 2zm350 8 1 2z" fill="#FBFEFF"/>
<path transform="translate(647,402)" d="m0 0c0.99 0.5 0.99 0.5 2 1 1.79 0.26 3.6 0.46 5.4 0.65 1.66 0.17 1.66 0.17 3.36 0.35 1.19 0.13 2.39 0.25 3.62 0.38 9.25 0.98 18.5 2.11 27.7 3.56 5.37 0.84 10.7 1.53 16.2 2.12 4.13 0.46 8.2 0.93 12.2 1.94 3 0.7 5.93 1.21 8.99 1.54 0.81 0.08 1.62 0.17 2.46 0.26 1.63 0.17 3.27 0.34 4.9 0.5 3.23 0.33 6.13 0.67 9.21 1.7 1.77 0.25 3.54 0.46 5.31 0.65 1.07 0.12 2.14 0.23 3.23 0.35 1.14 0.13 2.29 0.25 3.46 0.38 10.4 1.16 20.7 2.55 31.1 4.3 1.72 0.28 3.45 0.53 5.17 0.78 20.7 2.99 38 10.6 52.8 25.5 0.83 0.81 1.66 1.63 2.52 2.46 11.6 11.8 20.3 25.1 23.5 41.5l1 1c4.58 22.4 3.43 46.1 3.32 68.8-0.01 4-0.01 8 0 12 0 3.9 0 7.8-0.01 11.7-0.01 1.84-0.01 3.68-0.01 5.52 0 10.5-0.45 20.6-2.3 31-0.19 1.13-0.38 2.27-0.58 3.43-2.91 16.4-14.1 31-27.4 40.6h-2l-1 3c-2.31 1.2-4.53 2.22-6.94 3.19-0.64 0.27-1.29 0.54-1.96 0.82-4.79 1.99-4.79 1.99-7.1 1.99 0.89 12 2.13 22.5 7.69 33.2 1.31 2.75 1.31 2.75 1.31 5.75 0.83 0 0.83 0 1.68 0.01 13.5 0.08 27 0.17 40.5 0.28 6.54 0.05 13.1 0.09 19.6 0.13 6.31 0.04 12.6 0.09 18.9 0.14 2.41 0.02 4.81 0.03 7.22 0.04 3.37 0.02 6.74 0.05 10.1 0.08 0.99 0 1.98 0.01 3 0.01 10 0.12 19.6 1.99 26.9 9.32 6.89 8.31 8.86 16.3 7.98 27-0.45 3.05-0.96 6.06-1.56 9.08-1.27 8.47 0.64 12.7 5.12 19.7 0.55 0.89 1.1 1.78 1.67 2.7 3.23 5.19 6.6 10.3 10.2 15.2 2.53 3.67 4.69 7.55 6.9 11.4 1.48 2.53 3.03 4.95 4.68 7.37 2.97 4.36 5.58 8.89 8.21 13.5 2.8 4.76 5.8 9.4 8.79 14 1.13 1.77 2.25 3.54 3.38 5.31 1.94 3.06 3.89 6.1 5.85 9.14 21.1 32.7 21.1 32.7 21.1 52.4 0.02 1.02 0.03 2.04 0.05 3.1 0.01 8.51-1.37 16.3-5.8 23.7-0.39 0.66-0.78 1.33-1.18 2.01-0.46 0.76-0.91 1.52-1.38 2.3l-4 7h-32c1.39-2.79 3.11-3.03 5.94-4.31 8.44-4.5 15-12.5 18.2-21.6 3.22-14.2 0.3-27.1-7.17-39.4-0.95-1.74-0.95-1.74-0.95-3.74h-2c-0.74-1.34-0.74-1.34-1.5-2.71-3.69-6.58-7.49-12.9-11.9-19-1.57-2.2-3.08-4.42-4.55-6.69-0.4-0.61-0.8-1.23-1.21-1.87-0.85-1.69-0.85-1.69-0.85-4.69h-2c-1.51-2.08-1.51-2.08-3.12-4.81-0.54-0.9-1.08-1.79-1.64-2.71-1.24-2.48-1.24-2.48-1.24-5.48-0.99-0.33-1.98-0.66-3-1-1.28-1.64-1.28-1.64-2.5-3.69-0.43-0.72-0.87-1.45-1.32-2.2-0.92-1.65-1.78-3.34-2.62-5.05-1.78-3.49-3.87-6.64-6.07-9.87-1.28-1.88-2.51-3.78-3.74-5.69-1.51-2.58-1.51-2.58-3.75-3.5-0.05 0.77-0.1 1.53-0.15 2.32-0.69 9.88-2 19.6-3.39 29.4-1.16 8.42-1.96 16.8-2.46 25.3 1.07-0.03 1.07-0.03 2.17-0.06 6.81-0.17 13.5 0.29 20.3 0.94 0.86 0.07 1.73 0.15 2.62 0.23 10.1 1.03 10.1 1.03 13.7 4.7 1.43 2.59 1.64 4.3 1.65 7.25 0.03 1.29 0.03 1.29 0.06 2.6-0.5 2.34-0.5 2.34-2.04 4.13-3.41 1.68-6.56 1.57-10.3 1.46-0.69-0.01-1.38-0.01-2.08-0.02-4.45-0.06-8.71-0.59-13.1-1.23-2.44-0.13-4.87-0.22-7.31-0.25-1.22-0.03-2.43-0.05-3.68-0.08-0.99 0.11-1.99 0.22-3.01 0.33-2.14 3.21-2.47 4.92-3 8.68-0.25 1.72-0.25 1.72-0.5 3.48-0.16 1.22-0.33 2.45-0.5 3.72-0.26 1.87-0.26 1.87-0.53 3.78-1.18 8.66-2.16 17.3-2.87 26-0.28 3.27-0.56 6.18-1.6 9.31-0.39 2.73-0.74 5.45-1.06 8.19-0.09 0.75-0.18 1.5-0.28 2.27-0.22 1.85-0.44 3.69-0.66 5.54-2.63 0.05-5.25 0.09-7.88 0.12-0.74 0.02-1.49 0.04-2.26 0.06-1.95 0.01-3.91-0.08-5.86-0.18-2-2-2-2-2.27-4.33 0.04-6.6 0.62-12.9 1.64-19.4 0.81-5.31 1.43-10.7 2.07-16 0.19-1.58 0.19-1.58 0.38-3.19 0.69-5.79 1.35-11.6 2-17.4 0.14-1.19 0.27-2.38 0.41-3.61 0.26-2.3 0.52-4.61 0.77-6.92 0.11-1.04 0.23-2.08 0.35-3.15 0.1-0.92 0.2-1.84 0.31-2.78 0.34-2.22 0.34-2.22 1.34-4.22 0.34-2.76 0.64-5.5 0.9-8.27 0.08-0.83 0.17-1.66 0.25-2.52 0.27-2.67 0.53-5.35 0.79-8.02 0.97-10 1.95-20 3.57-30 0.87-5.63 1.48-11.3 2.12-17 1.09-9.58 2.2-19.2 3.52-28.7 0.14-1.01 0.14-1.01 0.28-2.05 0.44-3.18 0.89-6.36 1.35-9.54 1.83-11.6 1.83-11.6 0.64-23.1-2.21-2.82-5.03-3.24-8.42-3.82-4.48-0.29-8.95-0.27-13.4-0.25h-4.12c-3.77-0.01-7.54 0-11.3 0-4.07 0.01-8.14 0-12.2 0-7.97 0-15.9 0-23.9 0.01-9.28 0.01-18.6 0.01-27.8 0.01-16.6 0-33.1 0.01-49.6 0.02-16 0.02-32.1 0.03-48.2 0.02h-3-2.99c-18.3 0-36.6 0.01-54.8 0.02h-19.4c-7.88 0-15.8 0.01-23.6 0.02-4.02 0-8.03 0.01-12 0-3.68 0-7.36 0.01-11 0.01-1.96 0.01-3.92 0-5.88 0-5.64 0.02-11 0.12-16.6 1.14v3h-2c-1.27 6.16-0.61 11.5 0.31 17.7 1.23 8.72 2.26 17.4 3.04 26.2 0.3 4.19 0.3 4.19 1.65 8.12 0.28 1.8 0.5 3.61 0.71 5.41 0.13 1.14 0.26 2.28 0.39 3.45 0.14 1.24 0.28 2.48 0.42 3.76 0.15 1.29 0.3 2.58 0.45 3.91 0.39 3.46 0.78 6.91 1.17 10.4 0.38 3.41 0.77 6.82 1.16 10.2 0.15 1.34 0.3 2.69 0.45 4.04 0.08 0.66 0.16 1.32 0.23 2.01 0.97 8.52 1.93 17 2.88 25.6 0.27 2.38 0.54 4.76 0.8 7.15 0.12 1.09 0.25 2.19 0.37 3.33 0.11 1 0.23 2 0.34 3.03 0.1 0.88 0.2 1.75 0.3 2.65 0.23 2.16 0.23 2.16 1.33 4.11 0.33 2.47 0.62 4.93 0.87 7.41 0.08 0.75 0.16 1.5 0.24 2.28 0.17 1.61 0.34 3.23 0.5 4.85 0.44 4.22 0.89 8.44 1.34 12.7 0.09 0.83 0.18 1.67 0.27 2.54 0.77 7.24 1.6 14.5 2.47 21.7 0.12 0.99 0.24 1.99 0.36 3.02 0.55 4.53 1.15 9.04 1.95 13.5-2.77 0.25-5.54 0.47-8.31 0.69-0.79 0.07-1.57 0.14-2.38 0.22-1.14 0.08-1.14 0.08-2.3 0.16-0.69 0.06-1.39 0.12-2.11 0.18-1.9-0.25-1.9-0.25-3.59-1.39-1.8-2.57-1.92-4.66-2.22-7.77-0.13-1.15-0.25-2.31-0.37-3.5-0.11-1.2-0.23-2.41-0.34-3.65-0.24-2.39-0.49-4.78-0.73-7.16-0.1-1.06-0.2-2.12-0.31-3.21-0.2-2.55-0.2-2.55-1.34-4.57-0.16-1.89-0.28-3.79-0.38-5.69-0.44-6.87-1.23-13.7-2.12-20.5-0.13-1.01-0.26-2.03-0.4-3.08-0.7-5.44-0.7-5.44-2.1-10.7-3.58-0.03-7.17-0.05-10.8-0.06-1.52-0.02-1.52-0.02-3.08-0.03-0.98 0-1.96 0-2.97-0.01-0.9 0-1.8-0.01-2.73-0.01-2.32 0.1-4.24 0.49-6.47 1.11-10.3 1.09-10.3 1.09-14.7-1.94-2.73-3.62-2.93-5.56-2.81-9.97 0.9-3.74 3.4-5.02 6.5-7.09 2.46-0.41 2.46-0.41 5.38-0.63 1.6-0.13 1.6-0.13 3.23-0.26 1.12-0.08 2.24-0.15 3.39-0.23 1.09-0.09 2.17-0.18 3.29-0.27 6.92-0.52 13.8-0.72 20.7-0.61-0.31-0.87-0.63-1.74-0.95-2.63-0.99-3.19-1.48-5.99-1.8-9.31-0.11-1.13-0.22-2.26-0.34-3.43-0.17-1.8-0.17-1.8-0.35-3.63-1.25-12.4-2.79-24.7-4.56-37h-2c-0.25 0.89-0.5 1.77-0.75 2.69-1.31 3.48-2.93 5.43-5.25 8.31-1.12 1.81-2.2 3.65-3.25 5.5-3.78 6.59-7.73 13.1-11.8 19.5-0.6 0.96-1.2 1.92-1.82 2.91-3.4 5.4-6.93 10.7-10.6 15.9-1.26 1.78-2.48 3.58-3.68 5.4-1.42 2.11-2.87 4.14-4.38 6.19-2.21 3.06-3.91 6.21-5.51 9.63-0.99 1.99-0.99 1.99-2.42 4.37-2.83 4.72-5.19 9.66-7.57 14.6-0.35 0.71-0.7 1.41-1.05 2.14-3.56 8.07-2.78 16.4 0.11 24.6 4.67 10.9 10.8 16.5 20.9 22.3l3 2c-6.4 0.92-12.7 1.31-19.2 1.44-1.45 0.07-1.45 0.07-2.94 0.14-6.92 0.11-6.92 0.11-9.66-1.88-1.84-2.13-3.21-3.81-3.21-6.7h-2c-8.4-16.4-10.8-31-5.72-48.8 3.62-11 10.9-20.7 17.2-30.3 2.09-3.17 4.07-6.38 5.99-9.65 1.95-3.33 4.14-6.24 6.56-9.25l3-6c3.59-6.16 7.36-12.2 11.5-18 3.29-4.62 6.25-9.4 9.2-14.2 2.21-3.64 4.5-7.24 6.79-10.8 2.05-3.24 4.09-6.49 6.13-9.74 1.22-1.93 2.47-3.84 3.74-5.75 4.39-6.87 4.39-6.87 4.18-14.7-2.17-11-2.96-23.6 1.96-33.9 0.5-0.62 0.99-1.24 1.5-1.88h2c0.37-1.14 0.37-1.14 0.75-2.31 2.62-5.64 8.68-7.6 14.2-9.69 3.28-0.76 6.34-1.13 9.7-1.16 0.92-0.01 1.83-0.02 2.78-0.03 0.99 0 1.98-0.01 3-0.02 1.06-0.01 2.11-0.02 3.2-0.03 3.48-0.03 6.95-0.05 10.4-0.08 2.42-0.02 4.83-0.04 7.25-0.06l19-0.15c6.48-0.05 13-0.11 19.4-0.16 12.7-0.11 25.4-0.21 38.2-0.31 5.32-10.5 9.21-23 9.06-34.8-0.01-0.98-0.02-1.95-0.02-2.96-0.02-0.74-0.03-1.47-0.04-2.23-0.75-0.3-1.5-0.59-2.27-0.89-18.1-7.34-31-21.4-39.4-38.9-2.23-5.57-3.33-11.3-4.29-17.2-0.26-1.43-0.26-1.43-0.52-2.89-0.81-5.72-0.64-11.5-0.66-17.3-0.02-2.59-0.04-5.19-0.07-7.78-0.03-4.07-0.06-8.14-0.08-12.2-0.01-3.94-0.05-7.88-0.1-11.8 0.01-1.83 0.01-1.83 0.01-3.69-0.09-6.44-0.26-10.4-4.58-15.3-3.62-5.44-7.25-10.9-10.9-16.3-0.47-0.72-0.95-1.44-1.44-2.17-1.3-1.95-2.59-3.9-3.89-5.85-7.43-11.2-15-22.3-22.7-33.3-0.8-1.16-0.8-1.16-1.62-2.34-0.89-1.27-1.81-2.51-2.75-3.73-2.02-2.69-2.72-4.52-3.25-7.87 0.71-4.33 2.2-5.72 5.56-8.44 2.87-1.44 5.34-1.11 8.54-1.1 1.3 0.01 2.6 0.01 3.94 0.01l4.14 0.03c1.39 0 2.78 0.01 4.17 0.01 3.4 0.01 6.81 0.03 10.2 0.05-4.6-8.78-9.25-17.5-14.1-26.2-0.42-0.74-0.83-1.49-1.26-2.26-1.98-3.56-3.99-7.1-6.06-10.6-0.55-0.95-0.55-0.95-1.12-1.92-0.99-1.7-2-3.4-3-5.09-1.42-2.77-2.26-4.83-2.5-7.92 1.75-3.12 1.75-3.12 4-6 0.43-0.62 0.87-1.24 1.31-1.88 2.78-1.85 5.46-1.36 8.69-1.12zm62 10 4 1zm-48 12c0.44 3.76 1.62 6.12 3.79 9.18 1.4 2.11 2.58 4.28 3.77 6.51 3.33 6.19 6.85 12.2 10.4 18.3 2.75 4.72 5.43 9.46 8.05 14.2 0.88 1.71 0.88 1.71 2 2.74 0.07 2.02 0.08 4.04 0.06 6.06-0.01 1.11-0.02 2.21-0.02 3.35-0.02 0.85-0.03 1.71-0.04 2.59-6.48 2.67-6.48 2.67-10 2-0.91-0.99-1.8-1.99-2.69-3-4.05-3.89-8.44-3.47-13.8-3.38-2.86 0.08-5.7 0.22-8.56 0.38-1.02 2.88-1.02 2.88-0.23 5.73 0.41 0.58 0.83 1.15 1.26 1.74 0.46 0.65 0.91 1.29 1.39 1.96 0.5 0.68 1 1.37 1.52 2.07 1.03 1.45 2.06 2.9 3.09 4.34 0.51 0.71 1.02 1.42 1.54 2.16 1.87 2.62 3.66 5.31 5.43 8 3.13 4.73 6.34 9.4 9.56 14.1 3.77 5.46 7.43 11 10.9 16.6 1.5 2.41 1.5 2.41 3.6 4.57 2.37 3.37 2.44 5.2 2.44 9.29 0.01 1.95 0.01 1.95 0.03 3.94-0.01 0.7-0.01 1.39-0.01 2.1-0.02 2.18 0 4.37 0.01 6.55 0.03 3.86 0.03 7.72 0.03 11.6 0 6.16 0.02 12.3 0.06 18.5 0.01 2.13 0 4.26-0.01 6.39 0.03 16.2 4.07 30.6 15.4 42.6 4.36 4.26 4.36 4.26 9.96 5.85v2c1.44 0.65 2.87 1.29 4.31 1.94 0.8 0.36 1.6 0.72 2.43 1.09 2.35 1.05 2.35 1.05 5.26 1.97 0.9 0.34 1.8 0.69 2.73 1.05 3.68 1.07 6.77 1.21 10.6 1.22 0.71 0.01 1.42 0.01 2.15 0.02 2.32 0.01 4.65 0.01 6.98 0.01 1.63 0 3.25 0.01 4.88 0.01 3.41 0.01 6.82 0.01 10.2 0.01 4.36-0.01 8.71 0.01 13.1 0.03 3.36 0.01 6.72 0.02 10.1 0.01 1.6 0 3.2 0.01 4.81 0.02 8.33 0.04 15.7-0.07 23.5-3.38 0.94-0.33 1.88-0.65 2.86-0.99 5.23-1.99 9.16-4.03 13.1-8.01v-2c0.96-0.4 0.96-0.4 1.94-0.81 2.39-1.08 2.39-1.08 3.06-4.19 0.99-0.33 1.98-0.66 3-1 4.26-4.86 5.96-10.6 7.42-16.8 0.58-2.22 0.58-2.22 1.58-3.22 1.06-5.63 1.15-11.1 1.15-16.8 0-0.97 0-1.93 0.01-2.92 0-3.18 0.01-6.35 0.01-9.53 0-2.22 0-4.44 0.01-6.66 0-4.65 0.01-9.31 0.01-14 0-5.93 0.01-11.9 0.03-17.8 0.01-4.59 0.01-9.17 0.01-13.8 0-2.19 0-4.37 0.01-6.56 0.08-23.5-1.64-47.5-18.2-66h-2c-0.4-0.96-0.4-0.96-0.81-1.94-1.08-2.39-1.08-2.39-4.19-3.06-0.31-0.62-0.61-1.24-0.93-1.88-4.17-8.28-19.8-13.2-28.1-16.1-3.76-0.93-7.55-1.58-11.4-2.19-1.5-0.25-1.5-0.25-3.04-0.51-6.18-1-12.3-1.8-18.6-2.12-2.01-0.18-2.01-0.18-4.01-1.18-2.86-0.43-5.72-0.81-8.59-1.16-0.85-0.1-1.7-0.21-2.58-0.32-2.74-0.34-5.47-0.68-8.21-1.02-2.72-0.34-5.45-0.68-8.18-1.02-1.69-0.21-3.39-0.42-5.09-0.63-0.78-0.1-1.55-0.19-2.35-0.29-0.68-0.09-1.35-0.17-2.05-0.26-1.95-0.3-1.95-0.3-4-0.82-3.92-0.97-8.03-0.95-12-1.2-2.9-0.28-2.9-0.28-4.9-1.28-1.45-0.22-2.9-0.39-4.35-0.54-1.28-0.13-1.28-0.13-2.58-0.26-0.89-0.09-1.78-0.17-2.69-0.26-1.35-0.14-1.35-0.14-2.72-0.28l-6.66-0.66v-1c-2.83-0.34-5.67-0.67-8.5-1-0.79-0.1-1.58-0.19-2.4-0.29-5.07-0.58-9.99-0.8-15.1-0.71zm82.2 257c-1.23 2.22-1.7 3.83-2.01 6.33-0.12 0.8-0.23 1.61-0.34 2.44s-0.21 1.66-0.32 2.52c-0.75 5.85-1.77 11.2-3.9 16.7-0.83 2.55-0.83 2.55-0.6 7.11h78c-2.18-8.75-2.18-8.75-4.62-17.4-1.49-5.31-1.9-10.5-2.17-16 0.07-2.48 0.07-2.48-1.21-3.55-1.89-0.11-3.78-0.16-5.67-0.18-1.21-0.01-2.42-0.02-3.67-0.04-1.32 0-2.64-0.01-4-0.02-0.66 0-1.33-0.01-2.02-0.01-3.54-0.02-7.08-0.04-10.6-0.05-3.66-0.01-7.32-0.04-11-0.08-2.8-0.03-5.61-0.03-8.42-0.04-2.01-0.01-4.01-0.03-6.02-0.06-1.21 0-2.43 0.01-3.69 0.01-1.07-0.01-2.14-0.01-3.25-0.02-2.79 0.24-2.79 0.24-4.5 2.39zm-24.2 22.1 1 2zm226 97 1 2zm-355 32 1 2zm350 8 1 2z" fill="#703130"/>
<path transform="translate(993 388)" d="m0 0c1.41-0 2.82-0.01 4.23-0.02 3.8-0.01 7.6-0.01 11.4-0.02 2.38 0 4.76-0.01 7.15-0.01 7.47-0.01 15-0.02 22.4-0.03 8.59 0 17.2-0.02 25.8-0.05 6.67-0.02 13.3-0.03 20-0.03 3.97 0 7.94-0.01 11.9-0.03 3.74-0.01 7.48-0.02 11.2-0.01 2 0 4.01-0.01 6.01-0.02 10.7 0.05 21.3 1.21 30.5 6.94 0.99 0.6 1.99 1.2 3.02 1.82 0.71 0.53 1.43 1.07 2.16 1.62v2c0.86 0.34 0.86 0.34 1.73 0.69 7.88 4.53 13.7 14.8 16.3 23.3 0.95 6.11 1.15 12.2 1.15 18.4 0 0.89 0.01 1.78 0.01 2.69 0.01 2.92 0.01 5.83 0.01 8.74 0.01 2.05 0.01 4.09 0.01 6.13 0.01 4.28 0.01 8.55 0.01 12.8 0 5.45 0.01 10.9 0.03 16.4 0.01 4.22 0.01 8.44 0.01 12.7 0 2.01 0.01 4.02 0.02 6.02 0.06 18.2-0.28 34.7-13.4 48.7-10.6 10.2-23.4 13.6-37.7 13.7-0.87 0.01-1.73 0.02-2.62 0.02-1.86 0.02-3.73 0.03-5.59 0.04-2.95 0.02-5.9 0.04-8.85 0.07-8.39 0.07-16.8 0.13-25.2 0.18-5.13 0.03-10.3 0.07-15.4 0.12-1.95 0.01-3.91 0.03-5.86 0.04-2.74 0.01-5.47 0.03-8.2 0.06h-2.45c-5.11 0.07-8.21 0.45-11.9 4.07-0.56 0.67-1.13 1.35-1.72 2.04-0.6 0.72-1.21 1.43-1.83 2.17-1.28 1.55-2.54 3.13-3.79 4.71-2.13 2.62-4.49 4.92-6.88 7.31-0.9 1.1-1.8 2.2-2.68 3.31-0.77 0.89-1.53 1.78-2.32 2.69h-2c-0.22 0.54-0.45 1.08-0.68 1.64-1.73 3.1-3.93 5.49-6.32 8.11-0.45 0.51-0.9 1.01-1.36 1.54-1.17 1.28-2.4 2.5-3.64 3.71h-2c-0.26 0.81-0.53 1.61-0.81 2.44-0.39 0.84-0.78 1.69-1.19 2.56-0.99 0.33-1.98 0.66-3 1l-1 3c-1.72 0.16-3.45 0.28-5.18 0.38-1.45 0.1-1.45 0.1-2.92 0.21-3.38-0.69-4.73-1.94-6.84-4.62-2.11-3.94-1.78-8.24-1.76-12.6-0.02-1.01-0.03-2.02-0.05-3.07-0.04-3.22-0.05-6.43-0.06-9.65-0.02-2.19-0.05-4.38-0.07-6.57-0.07-5.35-0.1-10.7-0.12-16.1-1.99-0.23-3.99-0.46-5.98-0.68-11.2-1.75-20.4-11.2-27-19.6-6.68-9.23-8.28-18.6-8.25-29.8-0.01-0.96-0.01-1.92-0.02-2.91-0.01-3.16-0.01-6.31-0.01-9.47 0-2.2 0-4.41-0.01-6.62-0.01-4.62-0.01-9.23 0-13.8 0-5.9-0.01-11.8-0.04-17.7-0.01-4.56-0.01-9.11-0.01-13.7 0-2.17 0-4.35-0.01-6.52-0.02-3.05-0.01-6.09 0-9.14-0.01-0.89-0.01-1.78-0.02-2.69 0.05-5.96 1.2-10.8 3.39-16.4 0.35-0.88 0.69-1.77 1.04-2.68 5.31-11.4 13.5-19.3 25-24.3 0.85-0.38 1.7-0.76 2.58-1.15 2.42-0.85 2.42-0.85 6.42-0.85v-2c7.73-1.05 15.3-1.15 23.1-1.16zm-37.3 32.6c-4.57 6.26-5.28 11.6-5.24 19.1-0.01 0.94-0.01 1.88-0.02 2.85-0.02 3.1-0.02 6.19-0.01 9.29 0 2.16-0.01 4.33-0.02 6.49 0 4.53 0 9.06 0.01 13.6 0.01 5.79-0.01 11.6-0.04 17.4-0.02 4.47-0.02 8.93-0.01 13.4 0 2.13-0.01 4.27-0.02 6.4-0.02 2.99 0 5.98 0.01 8.97-0.01 0.87-0.02 1.74-0.03 2.64 0.1 8.39 2.74 16.6 8.59 22.8 6.99 5.76 14.4 8.25 23.4 8.4 2.76 0.21 4.29 0.69 6.59 2.2 2.39 3.59 2.31 5.37 2.42 9.64 0.06 1.95 0.06 1.95 0.12 3.93 0.03 1.38 0.06 2.75 0.09 4.12 0.04 1.38 0.08 2.77 0.12 4.15 0.09 3.39 0.18 6.77 0.25 10.2h4c2.04-2.23 2.04-2.23 4-5 2.56-2.62 5.17-5.16 7.82-7.69 2.41-2.02 2.41-2.02 2.18-4.31 0.99-0.33 1.98-0.66 3-1 1.5-1.7 2.93-3.46 4.32-5.25 7.84-10.1 7.84-10.1 12.8-11.2 2.53-0.17 5.02-0.19 7.55-0.15 0.96-0.01 1.91-0.01 2.9-0.02 3.14-0.01 6.29 0.01 9.44 0.03 2.19-0.01 4.39-0.01 6.58-0.02 5.78-0.03 11.6-0.02 17.3-0.01 9.24 0.02 18.5 0.01 27.7-0.03 3.22 0 6.44 0.01 9.66 0.03 1.98-0.01 3.96-0.01 5.95-0.02 0.89 0.01 1.78 0.02 2.7 0.03 7.97-0.05 13.7-2.58 20.1-7.38v-2c0.58-0.21 1.16-0.41 1.75-0.62 3.16-1.94 4.46-4.16 6.25-7.38 1.19-5.14 1.15-10.2 1.15-15.5 0-0.94 0.01-1.87 0.01-2.84 0.01-3.08 0.01-6.16 0.01-9.25 0.01-2.15 0.01-4.3 0.01-6.45 0.01-4.5 0.01-9 0.01-13.5 0-5.76 0.01-11.5 0.03-17.3 0.01-4.44 0.01-8.88 0.01-13.3 0-2.12 0.01-4.24 0.02-6.37 0.01-2.97 0-5.94 0-8.92 0-0.87 0.01-1.74 0.01-2.64-0.04-9.03-2.22-15.2-8.26-22-6.79-6.62-12.8-9.11-22.2-9.14-1.23-0.01-2.47-0.01-3.75-0.02h-4.1c-1.44 0-2.89-0.01-4.33-0.02-3.92-0.01-7.83-0.01-11.8-0.02-2.45 0-4.9-0.01-7.35-0.01-7.68-0.01-15.4-0.02-23-0.03-8.84 0-17.7-0.02-26.5-0.05-6.84-0.02-13.7-0.03-20.5-0.03-4.08 0-8.16-0.01-12.2-0.03-3.84-0.01-7.69-0.02-11.5-0.01-1.41 0-2.81 0-4.22-0.01-14.8-0.1-23.6 2.81-33.6 13.9z" fill="#703130"/>
<path transform="translate(377 1019)" d="m0 0c4.13 0.16 6.6 0.77 9.53 3.76 3.17 3.87 5.8 8.05 7.86 12.6 0.9 2 0.9 2 3.93 2.64 0.69 2.07 0.69 2.07 1 4h2c1.02 1.66 2.02 3.33 3 5l2 1c0.5 1.49 0.5 1.49 1 3l3 2c0.03-1.39 0.03-1.39 0.06-2.81 0.08-3.44 0.17-6.88 0.26-10.3 0.04-1.49 0.07-2.98 0.11-4.47 0.04-2.14 0.1-4.28 0.16-6.42 0.03-1.29 0.06-2.58 0.09-3.9 0.32-3.08 0.32-3.08 2.32-5.08 3.23-0.23 3.23-0.23 7.07-0.18 1.9 0.01 1.9 0.01 3.84 0.01 3.09 0.17 3.09 0.17 4.09 1.17 0.13 1.81 0.18 3.63 0.21 5.44 0.03 1.74 0.03 1.74 0.06 3.52 0.02 1.26 0.03 2.53 0.05 3.83 0.02 1.28 0.04 2.57 0.06 3.89 0.06 3.43 0.11 6.85 0.16 10.3 0.05 3.49 0.1 6.98 0.16 10.5 0.1 6.86 0.21 13.7 0.3 20.6-5.81 1.94-13.5 1.57-19.1-0.95-4.86-3.88-8.39-9.48-12.1-14.4-4.63-6.12-9.75-11.8-14.8-17.6l-1 33c-15 0-15 0-17-1-0.04-7.26-0.08-14.5-0.1-21.8-0.01-3.37-0.02-6.75-0.05-10.1-0.02-3.88-0.03-7.75-0.04-11.6-0.01-1.22-0.02-2.43-0.03-3.68v-3.4c-0.01-0.99-0.01-1.98-0.02-3 0.62-6.09 7.12-5.23 11.9-5.37z" fill="#713231"/>
<path transform="translate(953 1021)" d="m0 0c1.52 1.8 2.75 3.65 3.99 5.65 0.95 1.09 1.9 2.18 2.88 3.25 2.12 2.75 2.12 2.75 2.12 5.75 0.64 0.25 1.28 0.49 1.94 0.75 2.61 1.58 2.35 2.42 3.06 5.25 1.32 0.7 2.65 1.37 4 2 0.5 1.48 0.5 1.48 1 3 1.63 1.71 3.29 3.38 5 5l1 1c0.17-2.44 0.34-4.88 0.5-7.31 0.05-0.73 0.1-1.46 0.15-2.21 0.27-4.24 0.36-8.41 0.23-12.7-0.05-4.07 0.29-6.67 3.12-9.81 2.8-0.94 4.66-1.17 7.56-1.19 1.18-0.02 1.18-0.02 2.38-0.04 2.06 0.23 2.06 0.23 4.06 2.23 0.28 2.4 0.28 2.4 0.32 5.46 0.02 1.14 0.04 2.28 0.06 3.46 0.01 1.23 0.02 2.47 0.04 3.74 0.02 1.26 0.03 2.53 0.05 3.83 0.05 3.35 0.1 6.71 0.13 10.1 0.04 3.42 0.09 6.85 0.14 10.3 0.1 6.73 0.19 13.4 0.26 20.2-2.73 0.13-5.45 0.23-8.19 0.31-0.76 0.04-1.53 0.08-2.33 0.13-4.32 0.09-5.93 0.01-9.41-2.83-0.68-0.86-1.36-1.72-2.07-2.61-0.64-0.7-1.29-1.39-1.95-2.11-5.61-6.29-10.9-12.8-16-19.5-0.62-0.81-1.24-1.63-1.88-2.46-0.56-0.74-1.11-1.47-1.68-2.23-1.35-1.83-1.35-1.83-3.45-2.71l1 34h-16c-2-2-2-2-2.25-4.23 0.01-0.93 0.01-1.86 0.01-2.82 0-1.05-0.01-2.1-0.01-3.18 0.01-1.14 0.01-2.28 0.02-3.46v-3.53c0.01-2.47 0.01-4.94 0.03-7.41 0.01-3.79 0.02-7.58 0.02-11.4 0-2.39 0.01-4.79 0.01-7.19 0.01-1.13 0.01-2.27 0.01-3.44 0-1.06 0.01-2.11 0.02-3.2 0-0.93 0-1.86 0.01-2.81 0.13-2.36 0.13-2.36 1.13-5.36 5.31-2.09 14.2-2.89 19 0.35z" fill="#713231"/>
<path transform="translate(1028 1020)" d="m0 0c1.75 0.02 1.75 0.02 3.54 0.05 2.84 0.2 2.84 0.2 3.84 1.2 0.08 1.49 0.1 2.98 0.09 4.47 0 0.9 0 1.8-0.01 2.73-0.01 0.94-0.01 1.89-0.02 2.86-0.01 0.95-0.01 1.9-0.02 2.88-0.01 2.35-0.02 4.71-0.04 7.06h2v2c8.57-0.33 17.2-0.66 26-1 0.24-6.49 0.24-6.49 0.47-13 0.04-0.81 0.07-1.62 0.11-2.45 0.03-0.83 0.06-1.65 0.1-2.51 0.32-2.06 0.32-2.06 2.32-4.06 3.22-0.23 3.22-0.23 7.06-0.19 1.9 0.01 1.9 0.01 3.85 0.02 3.09 0.17 3.09 0.17 4.09 1.17 0.12 1.81 0.17 3.62 0.2 5.44 0.03 1.74 0.03 1.74 0.06 3.52 0.02 1.26 0.03 2.52 0.05 3.83 0.02 1.28 0.04 2.57 0.06 3.89 0.06 3.43 0.11 6.85 0.16 10.3 0.05 3.49 0.1 6.98 0.16 10.5 0.11 6.86 0.21 13.7 0.31 20.6-2.63 0.03-5.25 0.05-7.88 0.06-0.75 0.01-1.49 0.02-2.26 0.03-5.64 0.02-5.64 0.02-7.86-1.09-0.33-6.27-0.67-12.5-1-19-8.92-0.33-17.8-0.66-27-1v21c-2.79 0.02-5.57 0.04-8.44 0.06-0.88 0.01-1.76 0.02-2.66 0.03-1.97 0.01-3.94-0.04-5.9-0.09-1.69-1.69-1.15-3.8-1.17-6.11-0.01-1.1-0.02-2.19-0.03-3.31 0-1.19 0-2.38-0.01-3.6 0-1.22-0.01-2.43-0.02-3.68 0-2.57-0.01-5.14-0.02-7.71 0-3.94-0.04-7.88-0.07-11.8 0-2.5-0.01-4.99-0.01-7.48-0.02-1.19-0.03-2.37-0.04-3.59 0-1.1 0.01-2.2 0.01-3.33-0.01-0.96-0.01-1.93-0.01-2.93 0.37-2.44 0.37-2.44 1.69-4.26 2.66-1.88 5.11-1.5 8.3-1.43z" fill="#713231"/>
<path transform="translate(693 1020)" d="m0 0c1.17 0.01 2.35 0.03 3.56 0.04 1.76 0.01 1.76 0.01 3.56 0.02 2.88 0.17 2.88 0.17 3.88 1.17 0.15 1.49 0.25 2.98 0.31 4.47 0.04 0.9 0.09 1.8 0.13 2.73 0.04 0.94 0.08 1.89 0.12 2.86 0.04 0.95 0.08 1.9 0.13 2.88 0.11 2.35 0.21 4.71 0.31 7.06 6.35 0.76 12.7 1.26 19.1 1.56 1.3 0.07 1.3 0.07 2.62 0.13 2.11 0.11 4.21 0.21 6.32 0.31-0.02-0.59-0.04-1.18-0.05-1.79-0.06-2.67-0.1-5.35-0.14-8.02-0.03-0.93-0.05-1.86-0.08-2.82-0.01-0.89-0.02-1.78-0.03-2.7-0.01-0.82-0.03-1.65-0.04-2.49 0.42-2.71 1.15-3.57 3.34-5.18 3.1-0.33 3.1-0.33 6.62-0.25 1.75 0.02 1.75 0.02 3.54 0.05 2.84 0.2 2.84 0.2 3.84 1.2 0.12 1.81 0.17 3.62 0.2 5.44 0.03 1.74 0.03 1.74 0.06 3.52 0.02 1.26 0.04 2.52 0.05 3.83 0.02 1.28 0.04 2.57 0.07 3.89 0.05 3.43 0.1 6.85 0.15 10.3 0.05 3.49 0.1 6.98 0.16 10.5 0.11 6.86 0.21 13.7 0.31 20.6-2.63 0.03-5.25 0.05-7.88 0.06-0.75 0.01-1.49 0.02-2.26 0.03-5.64 0.02-5.64 0.02-7.86-1.09v-20c-4.48 0.14-8.96 0.29-13.4 0.44-1.28 0.04-2.56 0.08-3.88 0.12-1.21 0.04-2.43 0.08-3.68 0.12-1.69 0.06-1.69 0.06-3.41 0.12-2.52-0.09-2.52-0.09-3.59 1.2-0.16 1.41-0.25 2.83-0.32 4.25-0.04 0.86-0.08 1.71-0.13 2.59-0.04 0.9-0.08 1.8-0.12 2.72-0.04 0.9-0.08 1.81-0.13 2.74-0.1 2.23-0.2 4.47-0.3 6.7h-15c-1.68-5.03-2.29-8.56-2.23-13.7v-2.21c0-1.55 0.01-3.09 0.02-4.64 0.02-2.3 0.02-4.61 0.02-6.91 0.02-7.53 0.18-15 0.57-22.6 0.07-1.3 0.14-2.59 0.21-3.93 0.55-4.13 1.23-4.97 5.41-5.29z" fill="#713231"/>
<path transform="translate(455 1020)" d="m0 0c1.9 0.02 1.9 0.02 3.84 0.04 1.9 0.01 1.9 0.01 3.85 0.02 3.09 0.17 3.09 0.17 4.09 1.17 0.24 1.81 0.41 3.62 0.56 5.44 0.13 1.48 0.13 1.48 0.25 2.99 0.24 4.52 0.19 9.05 0.19 13.6 8.91-0.33 17.8-0.66 27-1 0.25-6.49 0.25-6.49 0.48-13 0.03-0.81 0.07-1.62 0.1-2.45s0.07-1.65 0.1-2.51c0.32-2.06 0.32-2.06 2.32-4.06 3-0.23 3-0.23 6.56-0.19 1.77 0.01 1.77 0.01 3.57 0.02 2.87 0.17 2.87 0.17 3.87 1.17 0.09 1.81 0.11 3.63 0.11 5.44v3.52c0 1.26-0.01 2.52-0.01 3.83-0.01 1.28-0.01 2.57-0.01 3.89 0 3.43-0.01 6.85-0.02 10.3-0.01 3.49-0.02 6.98-0.02 10.5-0.01 6.86-0.03 13.7-0.05 20.6-2.48 0.03-4.96 0.05-7.44 0.06-0.71 0.01-1.41 0.02-2.14 0.03-1.81 0.01-3.62-0.04-5.42-0.09-1.55-1.55-1.22-3.1-1.32-5.25-0.04-0.86-0.08-1.71-0.13-2.59-0.04-0.9-0.07-1.8-0.12-2.72-0.04-0.9-0.08-1.81-0.13-2.73-0.1-2.24-0.2-4.47-0.3-6.71-9.22-0.82-17.8-1.03-27 0v20c-2.79 0.02-5.57 0.04-8.44 0.06-0.88 0.01-1.76 0.02-2.66 0.03-1.97 0.01-3.94-0.04-5.9-0.09-1.71-1.7-1.14-3.89-1.15-6.22 0-1.12-0.01-2.23-0.02-3.38v-3.68c0-1.23-0.01-2.47-0.01-3.74-0.01-2.63-0.01-5.25-0.01-7.87 0-2.7 0-5.39-0.02-8.09-0.02-3.87-0.02-7.74-0.02-11.6-0.01-1.21-0.02-2.42-0.02-3.67v-3.39-2.99c0.41-3.9 1.69-4.32 5.47-4.59z" fill="#713231"/>
<path transform="translate(777 1020)" d="m0 0c1.19 0 2.37 0.01 3.59 0.01 1.19 0 2.38-0.01 3.6-0.01 2.9 0.13 2.9 0.13 3.9 1.13 0.14 2.45 0.21 4.88 0.25 7.33 0.03 1.52 0.07 3.03 0.1 4.55 0.05 2.4 0.09 4.8 0.13 7.2 0.04 2.31 0.09 4.62 0.14 6.93 0.01 0.71 0.02 1.42 0.03 2.15 0.14 5.58 0.69 10.1 4.6 14.2 5.12 3.03 12.1 2.36 17.8 1.62 3.72-1.76 3.72-1.76 6-5 0.12-2.73 0.19-5.45 0.21-8.18 0.03-1.67 0.06-3.33 0.09-5 0.04-2.63 0.08-5.26 0.11-7.89 0.02-2.54 0.07-5.07 0.12-7.61 0-0.79 0-1.58 0.01-2.39 0.12-5.41 0.12-5.41 1.8-7.93 2.71-1.62 5.24-1.28 8.35-1.18 1.77 0.04 1.77 0.04 3.58 0.08 0.9 0.03 1.8 0.07 2.73 0.1 5.67 12 2.92 38.4-1 51-4.31 5.72-10.1 8.55-17 10-3.57 0.41-7.15 0.6-10.8 0.75-1.41 0.09-1.41 0.09-2.86 0.17-0.91 0.04-1.81 0.09-2.75 0.13-0.82 0.04-1.63 0.08-2.48 0.12-2.16-0.17-2.16-0.17-5.16-2.17-1.23-0.27-2.47-0.53-3.75-0.81-6.11-1.46-9.93-4.34-13.6-9.44-4.32-8.64-3.99-18-3.94-27.4 0-1.29-0.01-2.57-0.02-3.89 0.04-18.3 0.04-18.3 6.18-18.6z" fill="#713231"/>
<path transform="translate(679 1136)" d="m0 0c1.29-0.01 1.29-0.01 2.6-0.01h2.85c1 0 2.01 0 3.04-0.01 3.36-0.01 6.73-0.01 10.1-0.01 2.41 0 4.82-0.01 7.23-0.01 6.55-0.02 13.1-0.02 19.6-0.03 4.09 0 8.18-0.01 12.3-0.01l34-0.03h2.19 2.2 4.41 2.21c11.8 0 23.7-0.02 35.5-0.04 12.1-0.03 24.3-0.04 36.4-0.04 6.82 0 13.6-0.01 20.5-0.03 6.41-0.01 12.8-0.01 19.2-0.01 2.35 0 4.71 0 7.07-0.01 3.21-0.01 6.42-0.01 9.62 0 0.95 0 1.89-0.01 2.86-0.02 1.28 0.01 1.28 0.01 2.6 0.02h2.24c2.58 0.49 3.45 1.22 4.94 3.37 0.19 2.69 0.19 2.69 0 5-7.08 0.74-14.1 1.15-21.2 1.17-0.96 0.01-1.93 0.02-2.92 0.02-3.2 0.02-6.39 0.04-9.59 0.05-2.31 0.01-4.61 0.02-6.92 0.04-6.23 0.03-12.5 0.06-18.7 0.09-3.9 0.02-7.8 0.04-11.7 0.06-12.9 0.06-25.8 0.12-38.7 0.18h-2.1c-0.69 0.01-1.39 0.01-2.1 0.01-11.3 0.05-22.6 0.11-33.8 0.17-11.6 0.07-23.2 0.12-34.8 0.17-6.5 0.03-13 0.06-19.5 0.1-6.11 0.03-12.2 0.06-18.3 0.08-2.24 0.01-4.48 0.02-6.72 0.04-3.06 0.02-6.12 0.03-9.18 0.03-0.89 0.01-1.77 0.02-2.69 0.03-5.06-0.01-9.21-0.6-14-2.24-0.63-1.81-0.63-1.81-1-4 2-3 2-3 3.86-3.68 2.18-0.32 4.24-0.45 6.45-0.45z" fill="#713332"/>
<path transform="translate(566 1020)" d="m0 0c1.25-0.02 2.49-0.03 3.78-0.05 3.65 0.4 4.08 0.63 6.28 3.36 0.88 1.65 1.7 3.34 2.46 5.05 0.67 1.51 0.67 1.51 1.36 3.04 0.47 1.06 0.95 2.13 1.43 3.22 3.06 6.8 6.11 13.6 9.5 20.2 2.56 5.02 4.92 10.1 7.19 15.2 0.31 0.7 0.61 1.39 0.93 2.1 2.13 4.91 2.13 4.91 2.13 7.15-2.44 0.08-4.87 0.14-7.31 0.19-0.69 0.03-1.38 0.05-2.09 0.08-5.11 0.07-5.11 0.07-7.48-1.58-1.62-2.44-2.81-5.07-4.12-7.69-4.24-2.12-9.77-1.32-14.4-1.37-1.15-0.04-2.31-0.08-3.5-0.12-1.67-0.01-1.67-0.01-3.37-0.03-1.02-0.02-2.03-0.04-3.08-0.06-2.79 0.33-2.79 0.33-4.34 2.8-1.17 2.56-2.22 5.17-3.27 7.78h-15c-1.04-4.17-1.08-4.6 0.59-8.2 0.37-0.81 0.74-1.62 1.12-2.45 0.4-0.85 0.81-1.71 1.23-2.6 0.41-0.89 0.82-1.78 1.25-2.7 2.84-6.1 5.79-12.2 8.85-18.2 2.93-5.76 5.67-11.6 8.35-17.5 3.05-6.59 4.26-7.7 11.6-7.72z" fill="#713231"/>
<path transform="translate(789 826)" d="m0 0c5.46 4.5 9.5 9.37 10.9 16.5 0.65 8.54 0.43 15.5-4 23h-2l-1 3c-2.56 1.19-2.56 1.19-5 2v2c-8.32 2.56-17 3.71-25.2 0.19-6.44-3.62-12.5-10.1-14.8-17.2-0.8-8.87-0.64-15.9 5-23 9.31-11.1 23.7-15.3 36.1-6.49zm-19.4 15.5c-2.56 3.03-3 6.08-2.69 10 1.27 2.68 1.27 2.68 4 4 3.54 0.62 6.78 0.75 9.94-1.19 1.41-2.41 1.93-4 2.06-6.81-1.58-4.3-1.58-4.3-5-7-3.17-0.28-5.38-0.27-8.31 1z" fill="#713231"/>
<path transform="translate(612 1020)" d="m0 0c1.02 0.01 2.04 0.01 3.09 0.02 1.16-0.01 2.32-0.01 3.51-0.01 1.88 0.03 1.88 0.03 3.79 0.05 1.28 0.01 2.56 0.01 3.88 0.01 2.71 0.01 5.42 0.03 8.13 0.06 3.47 0.04 6.95 0.06 10.4 0.07 3.31 0.01 6.62 0.03 9.93 0.05 1.89 0.01 1.89 0.01 3.8 0.02 1.16 0.01 2.31 0.03 3.49 0.04 1.02 0.01 2.04 0.02 3.09 0.03 2.3 0.15 2.3 0.15 3.3 1.15 0.24 2.35 0.42 4.7 0.57 7.06 0.08 1.29 0.16 2.58 0.25 3.91 0.06 1 0.12 2 0.18 3.03-0.63 0.02-1.26 0.05-1.91 0.07-2.84 0.12-5.68 0.24-8.52 0.37-1.49 0.05-1.49 0.05-3.01 0.11-1.42 0.07-1.42 0.07-2.86 0.13-0.88 0.04-1.75 0.07-2.65 0.11-2.04-0.01-2.04-0.01-3.05 1.21-0.16 3.1-0.26 6.18-0.31 9.28-0.02 0.93-0.04 1.86-0.07 2.82-0.06 2.99-0.12 5.97-0.18 8.96-0.04 2.02-0.09 4.04-0.13 6.06-0.11 4.96-0.21 9.92-0.31 14.9-2.45 0.02-4.91 0.04-7.37 0.06-0.7 0.01-1.4 0.02-2.12 0.03-5.28 0.02-5.28 0.02-7.51-1.09-0.49-20.8-0.49-20.8-1-42l-20-1c-1.63-1.63-1.47-3.57-1.75-5.81-0.11-0.88-0.23-1.75-0.36-2.65 0.18-4.03 1.61-6.26 5.67-7.03z" fill="#713231"/>
<path transform="translate(1013,444)" d="m0 0c3.12 2.01 4.58 3.48 5.58 7.09 0.26 2.59 0.17 4.41-0.58 6.91-1.77 2.11-3.66 3.65-5.85 5.32-2.06 1.61-3.57 3.21-5.21 5.24-2.96 3.6-6.33 6.52-9.94 9.44 1.22 5.04 4.44 7.34 8.32 10.4 0.83 0.77 0.83 0.77 1.68 1.55v2c0.87 0.38 0.87 0.38 1.77 0.77 3.99 2.2 6.78 5.42 9.23 9.23 0.86 3.15 0.61 4.66 0 8-1.6 2.79-2.83 3.61-5.85 4.62-4.3 0.63-6.54-0.17-10-2.77-2.64-2.34-5.12-4.83-7.59-7.35-2.32-2.31-4.79-4.42-7.26-6.56-1.46-1.27-2.89-2.57-4.25-3.94v-2c-0.64-0.27-1.28-0.54-1.94-0.81-2.06-1.19-2.06-1.19-3.06-4.19-1.32-0.68-2.66-1.35-4-2-2.41-3.61-2.72-4.74-2-9 3.48-5.21 8.28-9.2 13-13.2 2.02-1.84 3.77-3.77 5.53-5.85 3.18-3.75 6.63-6.85 10.4-9.94 0.64-0.62 1.28-1.24 1.94-1.88 3.29-1.79 6.47-1.85 10.1-1.12z" fill="#703130"/>
<path transform="translate(1097,445)" d="m0 0c2.71 2.36 2.71 2.36 5.38 5.19 3.1 3.24 6.19 6.41 9.62 9.31 1.33 1.17 2.67 2.33 4 3.5 1.45 1.23 1.45 1.23 2.94 2.48 7.5 6.64 7.5 6.64 8.94 11.5 0.19 4.59-0.39 8.05-3.19 11.8-2.69 2.31-2.69 2.31-5.69 2.31l-1 3c-1.62 1.71-3.3 3.37-5 5-0.85 0.89-1.69 1.77-2.56 2.69-2.44 2.31-2.44 2.31-4.63 3.37-1.97 0.79-1.97 0.79-2.69 2.82-1.73 3.28-3.86 4.43-7.12 6.12-3.57 0.77-6.52 0.71-9.84-0.88-3.13-2.23-4.11-3.87-4.85-7.62 0.86-4.36 2.25-5.76 5.69-8.5 0.72-0.35 1.44-0.7 2.19-1.06 2.35-1.22 2.68-2.61 3.81-4.94 1.48-0.5 1.48-0.5 3-1 0.68-1.32 1.35-2.66 2-4 2-2.25 2-2.25 4-4h2c-1.29-6.44-5.39-9.71-10-14l-5-5c-0.92-0.82-0.92-0.82-1.86-1.65-4.94-4.53-4.94-4.53-5.89-8.47 1.19-4.55 4.03-6.6 7.69-9.32 3.19-0.87 5.05 0.17 8.06 1.44z" fill="#703130"/>
<path transform="translate(1106 1020)" d="m0 0c1.33 0.01 1.33 0.01 2.68 0.01h3.03c1.63 0.02 1.63 0.02 3.28 0.04h3.36c3.54 0.01 7.09 0.04 10.6 0.07 2.4 0.01 4.8 0.01 7.2 0.02 5.89 0.02 11.8 0.06 17.7 0.1 2.05 4.79 2.97 8.83 2 14-2.99 7.37-7 14.2-11.2 21-1.57 2.65-3.06 5.33-4.52 8.04-0.49 0.91-0.98 1.81-1.48 2.74-0.99 1.83-1.97 3.66-2.94 5.49-0.45 0.85-0.91 1.69-1.38 2.56-0.41 0.77-0.81 1.53-1.23 2.32-1.26 1.9-1.26 1.9-4.26 3.9-3.28 0.3-3.28 0.3-7.06 0.31-1.25 0.02-2.5 0.04-3.79 0.05-1.04-0.12-2.08-0.24-3.15-0.36l-2-3c0.44-0.73 0.87-1.45 1.32-2.2 3.62-6.11 6.95-12.3 10.1-18.6 2.2-4.3 4.62-8.47 7.08-12.6 1.93-3.06 1.93-3.06 2.54-6.54-2.84-1.42-5.33-1.2-8.5-1.28-1.3-0.04-2.6-0.08-3.93-0.11-2.07-0.06-4.14-0.11-6.21-0.16-2-0.05-3.99-0.11-5.99-0.17-1.19-0.03-2.39-0.06-3.62-0.09-2.75-0.19-2.75-0.19-3.75-1.19-0.12-1.98-0.17-3.96-0.19-5.94-0.01-1.08-0.02-2.16-0.04-3.27 0.28-3.39 0.88-4.64 4.37-5.03z" fill="#713231"/>
<path transform="translate(1183 1020)" d="m0 0c0.95-0.01 1.9-0.03 2.88-0.04 1.03 0 2.05 0.01 3.11 0.01 1.05 0 2.11-0.01 3.19-0.02 2.23 0 4.46 0 6.69 0.01 3.42 0.01 6.83-0.02 10.2-0.05 2.17-0.01 4.33-0.01 6.49 0 1.54-0.02 1.54-0.02 3.11-0.04 1.43 0.02 1.43 0.02 2.88 0.03h2.54c2.16 0.5 2.16 0.5 3.93 2.36 1.62 2.81 1.63 4.85 1.61 8.08 0.01 1.53 0.01 1.53 0.02 3.09-0.45 3.38-1.48 5.19-3.4 7.97-0.39 0.62-0.78 1.23-1.18 1.86-0.37 0.58-0.75 1.17-1.13 1.77-4.01 6.41-7.5 13.1-11 19.8-0.4 0.77-0.81 1.53-1.22 2.32-0.8 1.53-1.6 3.07-2.4 4.6-0.37 0.71-0.74 1.41-1.12 2.14-0.32 0.63-0.65 1.26-0.99 1.91-0.96 1.61-0.96 1.61-2.96 3.61-2.73 0.31-5.38 0.52-8.12 0.63-0.76 0.04-1.51 0.08-2.29 0.12-1.86 0.09-3.73 0.17-5.59 0.25-0.94-2.49-1.15-3.62-0.14-6.12 0.48-0.81 0.96-1.61 1.45-2.44 0.55-0.95 1.1-1.91 1.67-2.89 0.32-0.55 0.63-1.1 0.96-1.66 2.16-3.83 4.16-7.74 6.19-11.6 2.32-4.44 4.63-8.87 7.18-13.2 1.85-2.76 1.85-2.76 1.69-5.05-2.78-1.38-5.14-1.2-8.25-1.28-1.25-0.03-2.49-0.07-3.78-0.11-1.96-0.05-1.96-0.05-3.97-0.11-2.58-0.06-5.17-0.14-7.75-0.21-1.15-0.03-2.3-0.07-3.48-0.1-2.77-0.19-2.77-0.19-4.77-1.19-0.08-1.77-0.14-3.54-0.19-5.31-0.03-0.98-0.07-1.97-0.1-2.99 0.29-2.7 0.29-2.7 1.52-4.34 2.28-1.75 3.61-1.74 6.47-1.76z" fill="#713231"/>
<path transform="translate(862 1020)" d="m0 0c1.15-0.04 2.3-0.07 3.49-0.11 3.85 0.51 4.79 1.47 7.2 4.42 0.54 0.5 1.07 1 1.63 1.51 1.54 1.67 2.36 3.25 3.3 5.3 1.78 3.66 3.57 6.97 6.07 10.2h3c1.76-2.18 1.76-2.18 3.37-5 0.92-1.5 0.92-1.5 1.86-3.02 1.07-1.81 2.14-3.61 3.19-5.42 0.63-1.05 0.63-1.05 1.27-2.12 0.35-0.62 0.7-1.24 1.07-1.88 1.6-2.02 2.8-2.7 5.24-3.56 3.01-0.19 3.01-0.19 6.25-0.12 1.08 0.02 2.15 0.03 3.26 0.05 1.23 0.04 1.23 0.04 2.49 0.07 1.16 1.66 1.16 1.66 2 4-0.98 2.62-0.98 2.62-2.63 5.44-0.53 0.93-1.05 1.85-1.6 2.81-1.77 2.75-3.7 5.22-5.77 7.75-2.71 3.64-5.36 7.32-8 11-0.45 0.63-0.91 1.26-1.37 1.91-2.89 4.15-3.77 7.41-3.73 12.4 0 0.8 0.01 1.6 0.01 2.42 0.01 1.24 0.01 1.24 0.02 2.5 0.01 0.84 0.01 1.68 0.02 2.55 0.01 2.07 0.03 4.13 0.05 6.2-2.65 0.03-5.29 0.05-7.94 0.07-0.75 0-1.51 0.01-2.29 0.02-1.92 0.01-3.85-0.04-5.77-0.09-2.34-2.33-1.31-9.24-1.34-12.6-0.28-8.33-3.28-13.9-8.29-20.5-3.39-4.57-6.71-9.18-9.94-13.9-0.45-0.64-0.9-1.28-1.37-1.94-3.14-4.61-3.14-4.61-2.74-7.27 1.45-3.97 4.09-3.09 7.99-3.17z" fill="#713231"/>
<path transform="translate(1068,445)" d="m0 0c0.49 1.49 0.49 1.49 1 3h2c1.32 10.1-2.47 17.4-7 26-0.82 1.62-1.63 3.25-2.44 4.88-0.39 0.77-0.78 1.54-1.18 2.33-1.85 3.74-3.61 7.51-5.38 11.3-2.91 6.21-5.88 12.4-9 18.5h-2l-1 3c-4.5 0.35-7.93 0.56-12-1.56-2.63-3.21-2.76-5.33-3-9.44 1-3.09 1-3.09 2.58-6.22 0.58-1.17 1.16-2.34 1.75-3.54 0.64-1.25 1.28-2.49 1.92-3.74 0.64-1.29 1.29-2.57 1.92-3.86 1.31-2.62 2.61-5.23 3.93-7.83 2.8-5.59 5.47-11.2 8.15-16.9 0.88-1.85 1.76-3.69 2.64-5.54 0.54-1.13 0.54-1.13 1.1-2.29 0.33-0.7 0.67-1.39 1.01-2.11 0.33-0.72 0.67-1.43 1.01-2.17 1.6-2.97 3.87-4.36 6.93-5.64 2.85-0.26 4.56 0.46 7.06 1.81z" fill="#713231"/>
<path transform="translate(527,576)" d="m0 0c3.33 2.81 4.76 4.52 5.47 8.86 0.17 3.44 0.16 6.83 0.09 10.3 0.01 1.18 0.02 2.36 0.04 3.58-0.08 8.66-0.08 8.66-2.5 11.6-3.04 2.42-5.15 2.23-8.91 2.06-3.26-0.58-4.99-1.98-7.19-4.39-1.46-4.39-1.27-8.65-1.31-13.2-0.03-0.93-0.06-1.86-0.09-2.82-0.06-6.22 0.75-9.85 4.4-14.9 3.31-2.65 6.07-2.28 10-1z" fill="#713231"/>
<path transform="translate(527,510)" d="m0 0c3.33 2.77 4.76 4.46 5.43 8.77 0.13 3.3 0.1 6.56 0.01 9.85-0.01 1.14-0.01 2.27-0.02 3.43-0.14 9.41-0.14 9.41-2.42 13-3.46 1.73-7.22 1.49-11 1-2.87-1.79-4.49-2.98-6-6-0.27-3.58-0.23-7.16-0.25-10.8-0.02-0.99-0.04-1.98-0.06-3-0.03-5.5 0.15-9.52 3.31-14.2 3.35-2.63 6.89-2.58 11-2z" fill="#713231"/>
<path transform="translate(582,1186)" d="m0 0c3.19 0.06 4.12 1.13 6.36 3.43 0.79 0.99 1.58 1.99 2.39 3.01 1.2 1.48 1.2 1.48 2.42 2.99 1.83 2.57 1.83 2.57 1.83 4.57 0.99-0.33 1.98-0.66 3-1l-1-2h3c0.27-0.72 0.54-1.44 0.81-2.19 1.21-2.86 2.32-5.32 4.19-7.81 2.56-0.94 2.56-0.94 5-1 2 2 2 2 2.23 4.52-0.01 1.04-0.02 2.08-0.03 3.14-0.01 1.13-0.02 2.25-0.02 3.4-0.02 1.18-0.04 2.35-0.06 3.56 0 1.19-0.01 2.37-0.02 3.59-0.03 2.93-0.06 5.86-0.1 8.79-1.67 0.04-3.33 0.04-5 0-1.74-1.74-1.37-4.19-1.56-6.56-0.13-1.52-0.13-1.52-0.26-3.07-0.06-0.78-0.12-1.56-0.18-2.37-2.87 2.72-2.87 2.72-5 6-2.69 0.38-2.69 0.38-6 0-2.01-1.82-3.38-3.8-5-6l-2-1c0.02 1.22 0.04 2.43 0.06 3.69 0.01 3.23-0.27 6.16-1.06 9.31-1.67 0.04-3.33 0.04-5 0-2.53-2.53-1.19-9.53-1.19-12.9-0.01-1.12-0.02-2.24-0.03-3.4-0.01-1.07-0.01-2.15-0.01-3.25 0-0.99-0.01-1.98-0.01-3 0.24-2.41 0.24-2.41 2.24-4.41z" fill="#703130"/>
<path transform="translate(957 1186)" d="m0 0c0.83 0.01 1.65 0.02 2.51 0.03 0.89 0.01 1.79 0.01 2.71 0.02 1.41 0.03 1.41 0.03 2.84 0.05 0.95 0.01 1.89 0.02 2.87 0.03 2.33 0.02 4.67 0.06 7.01 0.1l1 3h2c2.45 3.68 2.6 6.72 2 11-0.56 0.86-1.12 1.73-1.69 2.62-0.43 0.79-0.87 1.57-1.31 2.38 1.22 3.2 1.22 3.2 3 6v2c-2.75 0.31-2.75 0.31-6 0-2.25-2.32-2.25-2.32-4-5l-2-3c-3.54-0.34-3.54-0.34-7 0-1.97 1.97-1.67 5.35-2 8-1.98-0.33-3.96-0.66-6-1-0.06-3.96-0.1-7.92-0.13-11.9-0.01-1.13-0.03-2.25-0.05-3.42-0.01-1.07-0.01-2.15-0.02-3.26-0.01-0.99-0.02-1.99-0.03-3.01 0.29-3.15 1.07-4.31 4.29-4.66zm2.94 8.23 1 5c1.43 0.25 2.87 0.47 4.31 0.68 0.8 0.13 1.6 0.26 2.43 0.39 2.32 0.14 2.32 0.14 4.06-1.39 1.48-1.7 1.48-1.7 1.01-4.31-0.56-2.54-0.56-2.54-2.81-3.37-4.45-0.39-6.69-0.06-10 3z" fill="#713231"/>
<path transform="translate(568 1187)" d="m0 0c2.56 2.09 3.74 3.85 4.78 6.99 0.15 2.31 0.22 4.62 0.25 6.94 0.03 1.22 0.05 2.45 0.08 3.71-0.35 3.55-0.8 4.9-3.33 7.35-3.8 1.27-7.41 1.26-11.4 1.31-0.76 0.03-1.51 0.06-2.29 0.09-3.99 0.04-5.9-0.13-9.38-2.3-1.96-2.1-1.96-2.1-1.96-4.1h-2c-0.91-12.4-0.91-12.4 1.23-16.2 5.8-5.8 16.5-7.17 24-3.76zm-13.5 5.05c-3.03 2.14-4.39 3.49-5.75 6.94-0.25 3.15-0.25 3.15 1 6 4.58 3.35 8.54 3.54 14 3 1.83-1.12 1.83-1.12 3-3 0.36-2.51 0.36-2.51 0.19-5.19-0.03-0.9-0.06-1.8-0.08-2.73-0.04-0.69-0.07-1.37-0.11-2.08h-2v-2c-3.97-1.51-6.14-2.28-10.2-0.94z" fill="#713231"/>
<path transform="translate(1043 1187)" d="m0 0c2.09 1.74 3.57 3.52 4.78 5.95 0.15 2.66 0.23 5.28 0.25 7.94 0.02 0.73 0.04 1.46 0.06 2.21 0.04 5.31 0.04 5.31-1.57 7.79-5.89 3.6-14.1 2.83-20.7 2.06-3.73-1.89-6.13-4.27-8-8-0.83-5.65-0.62-9.87 2.81-14.6 4.88-5.99 15.6-6.61 22.4-3.39zm-16.2 6.95c-2.33 3.22-2.25 6.12-2 10l1 2c3.29 1.1 5.74 1.1 9.19 1.07 1.09-0.01 2.17-0.02 3.29-0.03 0.83-0.01 1.66-0.02 2.52-0.04 1.23-2.46 1.17-4.19 1.19-6.93 0.02-1.32 0.02-1.32 0.04-2.66-0.06-2.67-0.06-2.67-2.23-5.41-5.36-1.23-8.6-1.75-13 2z" fill="#713231"/>
<path transform="translate(863 1187)" d="m0 0c3.63 2.04 5.31 4.56 6.56 8.44 0.69 5.44 0.59 11.1-2 16-6.3 3.39-14.1 2.77-21 2-3.42-1.33-5.23-2.78-7-6-1.47-4.32-1.76-8.03-0.1-12.3 5.6-9.68 13.2-9.81 23.5-8.12zm-15.4 7.44c-2.17 2.64-2 4.08-1.94 7.56 0.64 3.47 0.64 3.47 2.94 5.38 3.95 1.39 7.86 1.89 12 1.06 2.15-3.22 2.3-4.27 2.32-8 0.01-0.87 0.03-1.74 0.05-2.63-0.44-2.83-1.1-3.67-3.37-5.37-4.95-1.54-7.7-0.84-12 2z" fill="#713231"/>
<path transform="translate(522 1186)" d="m0 0c1.3-0.04 1.3-0.04 2.62-0.07 6.36-0.03 6.36-0.03 9.54 2.34 2.14 3.08 2.62 4.84 2.65 8.54 0.02 0.78 0.03 1.57 0.05 2.37-0.24 2.2-0.24 2.2-2.24 5.2 0.35 3.38 1.36 6.03 3 9-5.37 0.48-5.37 0.48-8.24-1.76-1.76-2.24-1.76-2.24-2.63-4.43-1.06-2.19-1.06-2.19-4.25-2.57-0.95-0.08-1.9-0.16-2.88-0.24-2.12 3.18-2.5 5.26-3 9-1.98-0.33-3.96-0.67-6-1-0.05-3.96-0.09-7.92-0.12-11.9-0.02-1.13-0.03-2.26-0.05-3.42-0.01-1.07-0.01-2.15-0.02-3.26-0.01-0.99-0.02-1.99-0.03-3.01 0.58-6.27 6.78-4.8 11.6-4.81zm-4.38 6.38c-0.16 2.91-0.16 2.91 0 6 1.76 2.17 1.76 2.17 3.92 2.23 3.85 0.3 3.85 0.3 7.08-1.23 0.25-4.15 0.25-4.15-1-8-1.27-0.03-2.55-0.05-3.87-0.07-0.72-0.01-1.44-0.02-2.18-0.03-2.03-0.03-2.03-0.03-3.95 1.1zm12 1v6h1v-6h-1z" fill="#703130"/>
<path transform="translate(710 1186)" d="m0 0c1.28 0.01 1.28 0.01 2.6 0.01 0.93 0 1.86 0.01 2.82 0.01 1.46 0.02 1.46 0.02 2.96 0.04h2.95c7.27 0.04 7.27 0.04 9.55 1.18v5c-5.94 0.33-11.9 0.66-18 1v4l13 1 1 4-12 1-1 3c1.06 0.06 2.12 0.12 3.21 0.19 1.39 0.08 2.77 0.17 4.16 0.25 0.7 0.04 1.4 0.08 2.12 0.12 5.28 0.33 5.28 0.33 7.51 1.44v5c-3.98 0.03-7.96 0.05-11.9 0.07-1.71 0.01-1.71 0.01-3.44 0.02-1.08 0-2.16 0.01-3.28 0.01-1.5 0.01-1.5 0.01-3.03 0.02-2.31-0.12-2.31-0.12-3.31-1.12-0.26-3.97-0.19-7.95-0.19-11.9-0.01-1.13-0.03-2.25-0.04-3.41v-3.25c-0.01-0.99-0.01-1.97-0.02-2.99 0.32-3.18 1.14-4.29 4.37-4.66z" fill="#713231"/>
<path transform="translate(1091 1186)" d="m0 0c0.87 0.01 1.74 0.02 2.63 0.03 0.95 0.01 1.89 0.01 2.86 0.02 0.98 0.02 1.97 0.03 2.98 0.05 0.99 0.01 1.99 0.02 3.01 0.03 2.45 0.02 4.91 0.06 7.37 0.1v2h2v4c-5.94 0.33-11.9 0.66-18 1v4c0.84 0.06 1.68 0.12 2.55 0.18 1.64 0.13 1.64 0.13 3.32 0.25 1.64 0.13 1.64 0.13 3.3 0.25 2.83 0.32 2.83 0.32 4.83 1.32v2c-0.92 0.11-1.84 0.22-2.78 0.33-1.19 0.16-2.38 0.32-3.6 0.48-1.77 0.23-1.77 0.23-3.59 0.46-3.33 0.43-3.33 0.43-5.03 3.73 1.2 0.06 2.4 0.12 3.64 0.18 1.58 0.09 3.15 0.17 4.73 0.25 0.79 0.04 1.59 0.08 2.41 0.12 5.99 0.33 5.99 0.33 8.22 1.45v5c-3.98 0.03-7.96 0.04-11.9 0.06-1.71 0.01-1.71 0.01-3.45 0.02-1.08 0.01-2.15 0.01-3.27 0.01-1.5 0.01-1.5 0.01-3.03 0.02-2.31-0.11-2.31-0.11-3.31-1.11-0.26-3.98-0.19-7.96-0.19-11.9-0.01-1.12-0.03-2.25-0.04-3.4 0-1.08 0-2.15-0.01-3.25 0-0.99 0-1.98-0.01-3 0.32-3.2 1.15-4.3 4.4-4.64z" fill="#713231"/>
<path transform="translate(997 1186)" d="m0 0c0.86-0.03 1.71-0.07 2.59-0.1 4.59-0.04 6.46 0.02 10.1 3 0.97 1.26 0.97 1.26 1.96 2.54l1 1c0.2 2.18 0.2 2.18 0.25 4.87 0.02 0.89 0.05 1.77 0.08 2.68-0.33 2.45-0.33 2.45-1.48 4.23-2.59 1.7-4.71 1.7-7.79 1.84-5.13 0.15-5.13 0.15-10.1 1.38-1.31 2.99-1.31 2.99-2 6-1.98-0.33-3.96-0.66-6-1-0.06-3.96-0.1-7.92-0.13-11.9-0.01-1.13-0.03-2.25-0.05-3.42 0-1.07-0.01-2.15-0.02-3.26-0.01-0.99-0.02-1.99-0.03-3.01 0.58-6.24 6.73-4.84 11.5-4.87zm-4.31 8.44c-1.34 3-1.34 3 0 6 1.41 0.19 2.83 0.38 4.25 0.56 0.79 0.1 1.58 0.21 2.39 0.32 2.36 0.12 4.11-0.19 6.36-0.88 0.35-4.15 0.35-4.15-1.19-7.88-4.37-2.71-7.98-0.99-11.8 1.88z" fill="#713231"/>
<path transform="translate(783 1186)" d="m0 0h2.09c5.08 0.05 5.08 0.05 6.22 1.19 0.04 1.66 0.05 3.33 0 5-0.9-0.03-1.8-0.05-2.74-0.07-1.18-0.02-2.35-0.04-3.57-0.06-1.17-0.02-2.34-0.04-3.55-0.07-3.3-0.06-3.3-0.06-6.14 2.2 3.07 2.05 3.89 2.22 7.38 2.37 4.29 0.39 6.55 1.46 9.62 4.63 1.5 2.98 1.12 5.71 1 9l-1 2c-2.94 0.98-4.82 1.11-7.88 1.1-0.94-0.01-1.88-0.01-2.85-0.01-0.97-0.01-1.95-0.02-2.96-0.03-0.98 0-1.97-0.01-2.99-0.01-2.44-0.02-4.88-0.03-7.32-0.05-0.62-1.88-0.62-1.88-1-4 2-2 2-2 4.65-2.23 1.57 0.02 1.57 0.02 3.16 0.04 1.04 0.01 2.08 0.01 3.15 0.02 2.78 0.15 5.33 0.54 8.04 1.17v-4c-3.19-1.6-6.64-1.4-10.2-1.62-2.9-0.39-5.18-1.19-7.83-2.38-1.46-6.23-1.46-6.23 0.69-9.81 4.42-4.19 8.05-4.49 14-4.38z" fill="#6F3130"/>
<path transform="translate(641 1186)" d="m0 0c0.8-0.02 1.61-0.04 2.43-0.06 3.9 0 6.25 0.26 9.74 2.11 2.58 3.15 2.53 4.99 2.39 9.01-0.02 1.15-0.04 2.3-0.06 3.48-0.38 2.9-0.38 2.9-2.38 4.9-3.24 1.14-6.33 1.1-9.74 1.06-0.99-0.01-1.97-0.02-2.99-0.03-0.75-0.01-1.49-0.02-2.27-0.03-0.65 2.31-1.32 4.62-2 7-1.99 0.04-4 0.04-6 0-2.47-2.48-1.23-9.05-1.24-12.4-0.03-1.06-0.05-2.13-0.07-3.23-0.01-1.54-0.01-1.54-0.01-3.1-0.01-0.94-0.02-1.89-0.03-2.86 0.35-2.43 0.35-2.43 1.62-4.24 3.22-2.21 6.83-1.66 10.6-1.63zm-4.88 7.44c-0.16 3.58-0.16 3.58 0 7 3.13 1.56 6.58 1.4 10 1 1-0.66 1.99-1.32 3-2 0.42-3 0.42-3 0-6-1.78-2.19-1.78-2.19-4.09-2.27-0.79 0.01-1.59 0.01-2.41 0.02-1.19-0.01-1.19-0.01-2.4-0.02-2.31 0.08-2.31 0.08-4.1 2.27z" fill="#713231"/>
<path transform="translate(1070 1186)" d="m0 0c0.74-0 1.48-0.01 2.25-0.01 5.5 0.01 5.5 0.01 6.63 1.13v5c-4.96 0.33-9.91 0.67-15 1v3c4.28 0.67 8.57 1.32 13 2v2h2c0.02 1.82 0.04 3.63 0.06 5.44 0.01 1.01 0.02 2.02 0.03 3.06-0.09 2.5-0.09 2.5-1.09 3.5-7.27 1.24-14.7 1.12-22 1-0.67-1.31-1.32-2.64-2-4 2-2 2-2 3.87-2.22 0.75 0.01 1.49 0.02 2.26 0.03 0.8 0.01 1.61 0.01 2.44 0.02 1.26 0.02 1.26 0.02 2.55 0.05 1.27 0.01 1.27 0.01 2.57 0.03 2.1 0.02 4.2 0.06 6.31 0.09-0.67-1.65-1.32-3.29-2-5-1.77 0.07-1.77 0.07-3.57 0.13-4.09 0-7.56-0.73-11.4-2.13-2-2-2-2-2.38-5.37 0.38-3.63 0.38-3.63 2.19-6 4.18-3.11 8.33-2.78 13.3-2.75z" fill="#703130"/>
<path transform="translate(896 1186)" d="m0 0c0.88 0 1.75 0.01 2.65 0.01 0.88-0.02 1.75-0.03 2.65-0.05h2.54c0.77 0 1.53-0.01 2.32-0.01 2.61 0.47 3.41 1.34 5.06 3.37 2.14 3.22 2.29 4.27 2.31 8 0.02 0.87 0.03 1.73 0.05 2.63-0.36 2.37-0.36 2.37-1.37 4.14-3.16 1.96-6.56 1.81-10.2 1.92-0.75 0.03-1.5 0.07-2.27 0.1-1.85 0.09-3.7 0.15-5.54 0.21l-1 6c-0.99 0.33-1.98 0.66-3 1l-3-2c-0.38-2.3-0.38-2.3-0.37-5.15 0-1.03 0-2.05 0.01-3.1 0.01-1.07 0.03-2.14 0.04-3.25 0-1.07 0-2.14-0.01-3.24 0.06-8.3 0.54-10.5 9.11-10.6zm-2.78 8.32 2 6h10l1-7c-5.13-2.93-8.22-2.19-13 1zm13 3 1 3zm-8 4 4 1z" fill="#713231"/>
<path transform="translate(486 1186)" d="m0 0c1.47-0 1.47-0 2.96-0.01 1.02 0.01 2.05 0.02 3.1 0.03 1.03-0.01 2.05-0.02 3.1-0.03 0.98 0 1.96 0.01 2.96 0.01 0.9 0 1.8 0 2.73 0.01 2.21 0.26 2.21 0.26 4.21 2.26v4c-1.13 0.03-2.26 0.07-3.43 0.11-1.48 0.06-2.96 0.13-4.44 0.2-1.12 0.03-1.12 0.03-2.26 0.07-1.97 0.09-3.92 0.35-5.87 0.62-0.99 1.48-0.99 1.48-2 3 0.92 0.02 1.83 0.05 2.78 0.07 1.78 0.09 1.78 0.09 3.6 0.18 1.77 0.07 1.77 0.07 3.58 0.14 3.04 0.61 3.04 0.61 4.46 2.65 0.19 0.65 0.38 1.29 0.58 1.96-3.29 1.64-6.93 1.45-10.6 1.71-2.38 0.02-2.38 0.02-3.44 1.29-0.23 1.51-0.41 3.03-0.56 4.56-0.08 0.82-0.17 1.65-0.25 2.5-0.06 0.64-0.13 1.28-0.19 1.94h-7c-2-4.01-1.18-9.1-1.18-13.5-0.02-1.08-0.03-2.15-0.04-3.25 0-1.02-0.01-2.04-0.01-3.1 0-0.94-0.01-1.88-0.01-2.85 0.49-4.65 3.18-4.56 7.18-4.57z" fill="#713231"/>
<path transform="translate(921,1186)" d="m0 0 4 1 1 18c2.64 1.32 4.68 1.1 7.62 1.06 1.01-0.01 2.01-0.02 3.04-0.02 1.16-0.02 1.16-0.02 2.34-0.04 0.05-1.28 0.1-2.55 0.15-3.87 0.07-1.67 0.15-3.34 0.23-5.01 0.04-1.26 0.04-1.26 0.09-2.55 0.04-0.8 0.08-1.61 0.12-2.44 0.03-0.74 0.06-1.48 0.09-2.25 0.32-1.88 0.32-1.88 2.32-3.88 2.12 0.38 2.12 0.38 4 1 0.06 3.6 0.09 7.21 0.12 10.8 0.02 1.03 0.04 2.05 0.06 3.11 0 0.98 0.01 1.96 0.02 2.97 0.01 0.91 0.02 1.82 0.03 2.75-0.23 2.36-0.23 2.36-2.23 5.36-3.61 1.45-7.6 1.24-11.4 1.31-1.3 0.04-2.59 0.08-3.93 0.12-4.15-0.49-5.72-1.5-8.63-4.43-1.77-3.54-1.18-7.61-1.19-11.5-0.02-1.32-0.02-1.32-0.03-2.67-0.01-0.84-0.01-1.68-0.01-2.55 0-0.77-0.01-1.54-0.01-2.34 0.24-1.94 0.24-1.94 2.24-3.94z" fill="#713231"/>
<path transform="translate(556,552)" d="m0 0v2c0.62 0.29 1.24 0.58 1.88 0.88 2.12 1.12 2.12 1.12 4.12 3.12 0.54 4.11 0.39 6.32-1.69 9.94-5.23 3.26-10.3 3.1-16.3 2.06-3.11-1.48-5.12-3.11-7-6-0.88-3.91-0.4-5.35 1.69-8.75 4.48-4.36 11.4-6.19 17.3-3.25z" fill="#713231"/>
<path transform="translate(501,551)" d="m0 0c5.46 2.93 5.46 2.93 7 6 0.24 2.28 0.24 2.28 0.31 4.94 0.04 0.87 0.08 1.75 0.12 2.65-0.43 2.41-0.43 2.41-2.05 4.2-4.77 2.43-10.2 1.81-15.4 1.21-3.24-1.26-5.41-2.81-7-6-0.39-3.59-0.55-5.31 1.75-8.19 0.74-0.6 1.49-1.19 2.25-1.81 0.56-0.58 1.11-1.15 1.69-1.75 3.67-1.99 7.23-1.91 11.3-1.25z" fill="#713231"/>
<path transform="translate(675,1186)" d="m0 0c2.25 0.19 2.25 0.19 5 1 1.37 1.63 2.71 3.3 4 5 2.62 1.79 2.62 1.79 5 3 0.06-0.56 0.12-1.11 0.19-1.69 1.2-3.43 2.96-5.09 5.81-7.31 3.31 0.19 3.31 0.19 6 1-1.59 5.09-4.74 8.87-8 13 0.47 0.93 0.95 1.86 1.44 2.81 1.56 3.19 1.56 3.19 2.56 6.19 0.99 0.33 1.98 0.66 3 1l1 3c-3.19 0.38-3.19 0.38-7 0-2.04-1.8-3.38-3.79-5-6-0.99-0.33-1.98-0.66-3-1-0.64 0.97-1.28 1.94-1.94 2.94-2.06 3.06-2.06 3.06-3.06 4.06-1.67 0.04-3.33 0.04-5 0 0-4 0-4 2.56-6.81 2.24-2.54 2.43-3.02 2.63-6.63-1.34-4-3.05-6.06-6.01-8.98-0.39-0.52-0.78-1.04-1.18-1.58l1-3z" fill="#703130"/>
<path transform="translate(821 1186)" d="m0 0c1.12-0.01 2.25-0.02 3.4-0.04h3.25c1.49-0.01 1.49-0.01 3-0.02 2.41 0.25 2.41 0.25 4.41 2.25v4c-0.95 0.09-0.95 0.09-1.93 0.18-0.83 0.08-1.65 0.17-2.51 0.25-1.23 0.13-1.23 0.13-2.49 0.25-2.05 0.11-2.05 0.11-3.07 1.32-0.15 1.41-0.25 2.83-0.31 4.25-0.05 0.86-0.09 1.71-0.13 2.59-0.04 0.9-0.08 1.79-0.12 2.72-0.04 0.9-0.09 1.8-0.13 2.73-0.11 2.24-0.21 4.47-0.31 6.71-1.66 0.04-3.33 0.04-5 0-1.55-1.55-1.21-3.1-1.31-5.26-0.05-0.85-0.09-1.7-0.13-2.58-0.06-1.35-0.06-1.35-0.12-2.73-0.04-0.9-0.09-1.8-0.13-2.73-0.11-2.23-0.21-4.47-0.31-6.7l-10-2c1.86-7.44 7.14-5.19 13.9-5.19z" fill="#713231"/>
<path transform="translate(739,1186)" d="m0 0 4 1 1 19c3.69 0.92 6.97 1.3 10.8 1.56 1.17 0.09 2.34 0.17 3.55 0.26 1.33 0.09 1.33 0.09 2.7 0.18l1 5c-3.98 0.03-7.96 0.05-11.9 0.06-1.7 0.02-1.7 0.02-3.44 0.03-1.08 0-2.16 0-3.27 0.01-1.5 0.01-1.5 0.01-3.03 0.01-2.32-0.11-2.32-0.11-3.32-1.11-0.25-3.97-0.19-7.96-0.19-11.9-0.01-1.12-0.02-2.24-0.03-3.4-0.01-1.07-0.01-2.15-0.01-3.25 0-0.99-0.01-1.98-0.01-3 0.24-2.41 0.24-2.41 2.24-4.41z" fill="#713231"/>
<path transform="translate(683,1146)" d="m0 0h229v1h-229v-1z" fill="#FCFDFF"/>
<path transform="translate(664,1186)" d="m0 0c0.99 0.33 1.98 0.66 3 1l2 26h-6c-2.53-2.53-1.19-9.53-1.19-12.9-0.01-1.12-0.02-2.24-0.03-3.4-0.01-1.07-0.01-2.15-0.01-3.25 0-0.99-0.01-1.98-0.01-3 0.24-2.41 0.24-2.41 2.24-4.41z" fill="#713231"/>
<path transform="translate(565,1039)" d="m0 0h3c0.35 0.92 0.7 1.83 1.06 2.77 0.45 1.19 0.91 2.38 1.38 3.61 0.68 1.77 0.68 1.77 1.37 3.58 1.08 2.9 1.08 2.9 2.19 5.04-1.77 0.03-3.54 0.05-5.31 0.06-0.99 0.01-1.97 0.03-2.99 0.04-2.7-0.1-2.7-0.1-5.7-1.1 0.65-5.07 2.85-9.42 5-14z" fill="#FBFEFF"/>
<path transform="translate(1100,1202)" d="m0 0h9v1h-9v-1z" fill="#000002"/>
<path transform="translate(1068,1213)" d="m0 0h8v1h-8v-1z" fill="#000002"/>
<path transform="translate(668,1188)" d="m0 0h1v8h-1v-8z" fill="#000002"/>
<path transform="translate(1045,907)" d="m0 0h1v8h-1v-8z" fill="#000002"/>
<path transform="translate(898,1206)" d="m0 0h6v1h-6v-1z" fill="#000002"/>
<path transform="translate(1080,1203)" d="m0 0h1v6h-1v-6z" fill="#000002"/>
<path transform="translate(671,1146)" d="m0 0h6v1h-6v-1z" fill="#FCFDFF"/>
<path transform="translate(1060,1202)" d="m0 0 4 1z" fill="#000002"/>
<path transform="translate(1049,1199)" d="m0 0 1 4z" fill="#000002"/>
<path transform="translate(891,1213)" d="m0 0c3 1 3 1 3 1z" fill="#4B2121"/>
<path transform="translate(1041,1213)" d="m0 0 2 1z" fill="#000002"/>
<path transform="translate(888,1213)" d="m0 0 2 1z" fill="#000002"/>
<path transform="translate(640,1206)" d="m0 0 2 1z" fill="#000002"/>
<path transform="translate(500,1202)" d="m0 0 2 1z" fill="#000002"/>
<path transform="translate(784,1192)" d="m0 0 2 1z" fill="#000002"/>
<path transform="translate(1251,948)" d="m0 0 2 1z" fill="#FBFFFF"/>
<path transform="translate(962,567)" d="m0 0 2 1z" fill="#000002"/>
</svg>
